<svg width="375" height="90" viewBox="0 0 375 90" fill="none" xmlns="http://www.w3.org/2000/svg">
<path d="M28.466 0.424544C29.0418 -0.18277 29.9763 -0.0458282 30.6716 0.261798C34.2739 1.66894 38.1133 2.30206 41.9208 2.88555C51.6518 4.34033 61.5601 4.51498 71.3469 3.52066C73.7139 3.28051 76.0769 2.98082 78.418 2.55213C81.1237 2.1274 83.8214 1.56772 86.3937 0.607135C87.1966 0.361034 88.0135 -0.194677 88.8842 0.0970719C89.7728 0.376913 90.1633 1.51612 89.727 2.31198C89.452 2.85578 88.8603 3.10387 88.3223 3.31226C86.8898 3.8521 85.4393 4.35025 83.9669 4.76902C84.8336 6.53738 86.0749 8.08742 87.1946 9.69898C91.558 15.7384 97.1368 20.843 103.325 24.987C105.527 26.4894 107.83 27.843 110.215 29.0397C112.381 30.1373 114.58 31.2011 116.92 31.8858C117.862 32.1378 118.33 33.3941 117.736 34.1781C116.421 35.9127 115.013 37.5719 113.718 39.3224C113.255 39.9119 112.857 40.5648 112.283 41.059C111.622 41.6068 110.703 41.4599 109.908 41.4817C107.489 41.4401 105.073 41.4857 102.654 41.4817C102.646 56.7182 102.634 71.9546 102.656 87.193C106.457 87.2089 110.259 87.1831 114.06 87.2069C115.079 87.1633 115.756 88.4176 115.282 89.2769C115.025 89.785 114.445 90.0351 113.893 89.9934C77.2245 90.0014 40.556 89.9954 3.88753 89.9954C3.08857 90.0649 2.30156 89.3365 2.39321 88.5287C2.44701 87.7904 3.13041 87.1494 3.88155 87.195C7.69305 87.195 11.5046 87.199 15.3161 87.193C15.2981 71.9566 15.33 56.7221 15.3061 41.4857C12.5645 41.4619 9.82295 41.4917 7.08337 41.4718C6.35215 41.4817 5.66676 41.1007 5.24636 40.5132C3.72016 38.5365 2.12424 36.6133 0.546238 34.6763C0.237413 34.2952 -0.0594578 33.8367 0.0102769 33.3227C0.00828447 32.5705 0.629919 31.9731 1.32926 31.8084C2.34141 31.5405 3.30773 31.1336 4.27206 30.7307C16.4956 25.3224 27.151 16.2326 33.9531 4.71543C32.2496 4.24109 30.5541 3.71912 28.9323 3.01654C27.948 2.59777 27.6451 1.14498 28.466 0.424544ZM36.8322 5.4458C35.4255 7.9346 33.8416 10.3202 32.0743 12.5708C26.8761 19.4239 20.2074 25.0982 12.8415 29.526C9.89069 31.1753 6.91401 32.8107 3.7381 33.9935C4.83991 35.3272 5.92776 36.6748 6.99172 38.0383C14.7004 33.6244 22.423 29.2303 29.9842 24.5663C36.8043 20.3151 43.5407 15.9269 50.1196 11.3125C51.8809 10.1356 53.5247 8.79794 55.282 7.61506C49.0896 7.36499 42.9031 6.716 36.8322 5.4458ZM62.3651 7.59918C65.0668 9.46479 67.6788 11.4574 70.3786 13.327C76.9137 17.8878 83.6282 22.1846 90.4582 26.289C97.2185 30.3536 104.132 34.1483 110.98 38.0621C112.05 36.7106 113.096 35.3411 114.226 34.0392C103.501 29.6074 93.7796 22.6113 86.5192 13.5532C84.5566 10.987 82.5702 8.40893 81.0799 5.53114C74.9113 6.71997 68.6472 7.43644 62.3651 7.59918ZM45.1107 18.2173C38.3285 22.782 31.4029 27.1325 24.3716 31.3023C20.1417 33.7335 15.9716 36.27 11.6819 38.594C23.1801 38.5404 34.776 39.0029 46.1567 37.0122C50.024 36.3295 53.8435 35.1843 57.3163 33.3386C58.1093 32.9793 59.2131 33.5787 59.1413 34.4976C59.0218 35.881 58.6572 37.2325 58.3663 38.5881C74.2977 38.6099 90.2291 38.598 106.16 38.6039C97.3699 33.6918 88.6072 28.7162 80.1295 23.2782C73.431 18.9694 66.844 14.4841 60.4663 9.71287C59.8945 9.29212 59.3665 8.80587 58.7329 8.47443C54.3197 11.894 49.759 15.1211 45.1107 18.2173ZM40.3428 40.7256C35.4196 41.3011 30.4584 41.3547 25.5113 41.4956C25.5033 53.9376 25.4993 66.3816 25.5212 78.8256C29.8647 78.8117 34.2102 78.8256 38.5536 78.8176C38.2508 75.0626 36.7943 71.4604 34.6625 68.3703C33.6981 66.975 32.4788 65.7902 31.3012 64.5795C30.6198 63.9107 30.5899 62.4976 31.5742 62.0927C35.3459 60.7411 38.7808 58.5679 41.8411 56.0096C47.7566 51.038 52.3412 44.564 55.3119 37.4608C50.5361 39.3363 45.4195 40.1421 40.3428 40.7256ZM18.1453 41.4401C18.1712 56.6844 18.1393 71.9288 18.1672 87.1712C19.6715 87.193 21.1758 87.1692 22.682 87.1891C22.69 71.9546 22.7 56.7221 22.686 41.4877C21.1738 41.454 19.6595 41.4738 18.1453 41.4401ZM57.6908 41.4222C56.7524 45.3817 55.6566 49.3014 54.4293 53.1815C53.2179 56.744 51.9009 60.2727 50.4544 63.7479C48.715 67.5923 46.9557 71.4386 44.8915 75.1261C43.8435 77.1049 42.7616 79.0697 41.5204 80.9373C41.1438 81.5188 40.4026 81.63 39.7611 81.62C35.0071 81.6101 30.2512 81.628 25.4973 81.6101C25.5153 83.4757 25.5033 85.3433 25.5192 87.2089C47.7845 87.1891 70.0518 87.2089 92.3191 87.195C92.3351 85.3354 92.3271 83.4737 92.3271 81.6121C88.6172 81.63 84.9073 81.6359 81.1974 81.6121C80.3028 81.6736 79.6095 80.8083 79.6872 79.9588C79.6812 67.1179 79.7131 54.275 79.6772 41.4321C72.3491 41.4222 65.019 41.4341 57.6908 41.4222ZM82.5264 41.4599C82.4905 53.9079 82.4905 66.3558 82.5363 78.8038C85.8039 78.9645 89.0754 78.6688 92.343 78.8057C92.2932 66.3637 92.3191 53.9217 92.3111 41.4798C89.0496 41.4222 85.788 41.4718 82.5264 41.4599ZM95.2161 41.4817C95.2141 56.7221 95.2201 71.9645 95.2201 87.2049C96.7542 87.1791 98.2884 87.1831 99.8246 87.1791C99.8365 71.9467 99.7847 56.7122 99.8425 41.4798C98.3004 41.4301 96.7582 41.4758 95.2161 41.4817ZM51.2713 50.1588C49.8566 52.2169 48.0376 53.9476 46.336 55.7616C44.4612 57.5398 42.4289 59.1474 40.3548 60.6856C38.5636 61.8942 36.6409 62.8945 34.7421 63.9186C35.7842 65.2106 36.8003 66.5245 37.7208 67.9039C38.8545 69.5551 39.5359 71.4525 40.2831 73.2943C40.6417 74.1814 40.8429 75.1202 41.0661 76.047C42.5425 73.7527 43.6941 71.2659 44.9294 68.8367C46.4755 65.7306 47.9021 62.5651 49.1454 59.328C49.8088 57.6033 50.5819 55.9144 51.078 54.1321C51.7494 51.9053 52.7078 49.7559 53.1661 47.4715C52.399 48.2674 51.9208 49.2756 51.2713 50.1588Z" fill="#348485"/>
<path d="M54.4293 53.1815C57.2884 50.5776 61.329 49.1387 65.1883 49.9008C71.0062 50.8118 75.6665 56.2478 75.7521 62.0967C75.8418 65.1451 74.6981 68.1678 72.7037 70.4701C73.1819 72.4448 73.8215 74.3779 74.2239 76.3686C72.2534 75.7196 70.3268 74.9475 68.3702 74.2608C67.9398 74.0802 67.4995 74.3065 67.0871 74.4216C63.9411 75.5449 60.3149 75.2929 57.382 73.6853C54.23 71.9844 51.7654 68.9458 50.9724 65.4409C50.8409 64.8633 50.6735 64.2957 50.4544 63.7479C51.9009 60.2727 53.2179 56.744 54.4293 53.1815ZM55.3996 57.0576C55.3657 60.1953 55.3816 63.3331 55.3836 66.4709C55.3537 66.8063 55.4613 67.1219 55.6566 67.3958C57.2585 67.4256 58.8923 67.5506 60.3965 68.148C61.2134 68.4199 61.9048 68.9478 62.6978 69.2713C62.7835 66.4868 62.6938 63.6963 62.7396 60.9118C62.7098 60.237 62.911 59.4074 62.2973 58.9291C60.6197 57.5656 58.434 56.9464 56.2922 56.8948C55.9853 56.8829 55.6924 56.9861 55.3996 57.0576ZM65.5151 57.9784C64.8416 58.3397 64.0785 58.6493 63.6103 59.2804C63.4649 59.8718 63.5406 60.4911 63.5286 61.0944C63.5784 63.8035 63.4928 66.5146 63.5466 69.2237C64.2041 69.0709 64.744 68.6461 65.3557 68.3842C66.8221 67.7113 68.4439 67.4275 70.0538 67.4851C70.4423 67.5486 70.9145 67.3184 70.8627 66.8679C70.8827 64.0179 70.8647 61.1659 70.8767 58.3139C70.8827 57.8772 70.8269 57.4426 70.7512 57.0159C68.96 56.8353 67.117 57.1488 65.5151 57.9784Z" fill="#FEFEFE"/>
<path d="M57.6908 41.4222C65.019 41.4341 72.3491 41.4222 79.6772 41.4321C79.7131 54.275 79.6812 67.1179 79.6872 79.9588C79.6095 80.8083 80.3028 81.6736 81.1974 81.6121C84.9073 81.6359 88.6172 81.6299 92.3271 81.6121C92.3271 83.4737 92.335 85.3354 92.3191 87.195C70.0518 87.2089 47.7845 87.1891 25.5192 87.2089C25.5033 85.3433 25.5153 83.4757 25.4973 81.6101C30.2512 81.628 35.0071 81.6101 39.7611 81.62C40.4026 81.6299 41.1438 81.5188 41.5204 80.9373C42.7616 79.0697 43.8435 77.1049 44.8915 75.1261C46.9557 71.4386 48.715 67.5923 50.4544 63.7479C50.6735 64.2957 50.8409 64.8633 50.9724 65.4409C51.7654 68.9458 54.23 71.9844 57.382 73.6852C60.3149 75.2928 63.9411 75.5449 67.0871 74.4216C67.4995 74.3065 67.9398 74.0802 68.3702 74.2608C70.3268 74.9475 72.2534 75.7196 74.2239 76.3685C73.8215 74.3779 73.1819 72.4448 72.7037 70.4701C74.6981 68.1678 75.8418 65.1451 75.7521 62.0967C75.6665 56.2478 71.0062 50.8117 65.1883 49.9008C61.329 49.1387 57.2884 50.5776 54.4293 53.1815C55.6566 49.3014 56.7524 45.3816 57.6908 41.4222Z" fill="#F5E2C2"/>
<path d="M82.5264 41.4599C85.788 41.4718 89.0495 41.4222 92.3111 41.4798C92.3191 53.9218 92.2932 66.3638 92.343 78.8057C89.0754 78.6688 85.8039 78.9645 82.5363 78.8038C82.4905 66.3558 82.4905 53.9079 82.5264 41.4599Z" fill="#54A6A6"/>
<path d="M51.2713 50.1588C51.9208 49.2756 52.399 48.2674 53.1661 47.4715C52.7078 49.7559 51.7494 51.9053 51.078 54.1321C50.5819 55.9144 49.8088 57.6033 49.1453 59.328C47.9021 62.5651 46.4755 65.7306 44.9294 68.8367C43.6941 71.2659 42.5425 73.7527 41.0661 76.047C40.8429 75.1202 40.6417 74.1814 40.2831 73.2943C39.5359 71.4525 38.8545 69.5551 37.7208 67.9039C36.8003 66.5245 35.7842 65.2106 34.7421 63.9186C36.6409 62.8945 38.5636 61.8942 40.3548 60.6856C42.4289 59.1474 44.4612 57.5398 46.336 55.7616C48.0376 53.9476 49.8566 52.2169 51.2713 50.1588Z" fill="#55A5A5"/>
<path d="M55.3996 57.0576C55.6924 56.9861 55.9853 56.8829 56.2922 56.8948C58.434 56.9464 60.6197 57.5656 62.2973 58.9291C62.911 59.4074 62.7098 60.237 62.7396 60.9118C62.6938 63.6963 62.7835 66.4868 62.6978 69.2713C61.9048 68.9478 61.2134 68.4199 60.3965 68.148C58.8923 67.5506 57.2585 67.4256 55.6566 67.3958C55.4613 67.1219 55.3537 66.8063 55.3836 66.4709C55.3816 63.3331 55.3657 60.1953 55.3996 57.0576Z" fill="#54A6A5"/>
<path d="M65.5151 57.9784C67.117 57.1488 68.96 56.8353 70.7511 57.0159C70.8269 57.4426 70.8826 57.8772 70.8767 58.3139C70.8647 61.1659 70.8826 64.0179 70.8627 66.8679C70.9145 67.3184 70.4423 67.5486 70.0538 67.4851C68.4439 67.4275 66.8221 67.7113 65.3557 68.3842C64.744 68.6461 64.2041 69.0709 63.5466 69.2237C63.4928 66.5146 63.5784 63.8035 63.5286 61.0944C63.5406 60.4911 63.4649 59.8718 63.6103 59.2804C64.0785 58.6493 64.8416 58.3397 65.5151 57.9784Z" fill="#55A6A5"/>
<path d="M369.73 7.09092C370.888 6.7318 372.706 7.46061 372.56 8.85134C371.857 9.64352 370.994 10.2773 370.234 11.0167C370.934 11.5131 370.707 12.3968 370.732 13.1291C370.625 14.7065 370.948 16.3155 370.515 17.8611C369.865 17.7872 369.009 17.6076 368.906 16.8401C368.839 15.2099 369.173 13.5904 369.215 11.9638C367.561 13.0482 365.884 14.203 363.935 14.6818C364.716 13.6009 365.98 13.0411 366.925 12.1292C368.246 10.83 369.78 9.61184 370.536 7.88663C370.337 7.68947 369.933 7.29161 369.73 7.09092Z" fill="#398080"/>
<path d="M213.651 18.9737C215.249 18.5723 217.085 18.8434 218.328 19.9736C220.448 21.7376 220.313 25.5189 217.93 27.0047C215.6 28.7545 211.737 27.9765 210.572 25.2267C209.212 22.7656 210.949 19.5124 213.651 18.9737Z" fill="#358385"/>
<path d="M368.676 19.1849C369.627 18.4737 370.994 18.8188 371.687 19.7236C371.509 20.3222 371.346 20.9242 371.19 21.5298C372.138 21.3362 373.225 20.8644 374.119 21.4911C374.677 21.7199 374.506 22.3678 374.574 22.8396C373.462 22.8008 372.355 22.7058 371.247 22.6494C371.172 24.512 371.438 26.3674 371.389 28.2264C371.36 29.0468 370.497 29.3989 369.787 29.4305C369.269 28.5715 368.42 28.0293 367.614 27.473C368.31 27.2547 369.038 27.3603 369.759 27.4061C369.819 26.4132 369.784 25.4203 369.684 24.4345C368.477 26.1843 366.648 27.3709 364.759 28.2863C364.301 28.5327 363.779 28.5715 363.278 28.5855C365.167 26.7758 367.397 25.2408 368.803 22.9698C367.799 23.1071 366.865 23.5613 365.863 23.667C364.862 23.5543 364.503 22.4663 364.453 21.6108C366.133 22.3713 367.955 21.8537 369.709 21.7692C369.684 21.1742 369.663 20.5827 369.634 19.9947C369.308 19.7377 368.704 19.6814 368.676 19.1849Z" fill="#408282"/>
<path d="M233.022 20.5299C238.171 18.6955 243.764 19.9454 248.796 21.5545C248.384 24.6422 247.954 27.723 247.649 30.8213C247.162 30.9163 246.679 31.0044 246.196 31.1029C245.234 29.1066 244.321 26.9941 242.542 25.5647C240.444 23.7691 237.166 23.3818 234.709 24.6528C232.564 25.8393 232.315 28.6595 232.887 30.7896C233.661 33.3844 236.253 34.7294 238.473 35.9476C241.882 37.6622 245.404 39.4508 247.922 42.3907C252.208 47.6156 251.115 56.5022 245.337 60.2272C241.655 62.7023 236.967 63.0298 232.685 62.3538C229.861 61.963 227.127 61.1004 224.507 59.9983C224.901 56.643 225.483 53.3088 225.771 49.9394C226.47 50.0485 227.521 49.883 227.763 50.7632C228.828 53.2489 230.359 55.6396 232.606 57.2275C234.979 58.8506 238.576 59.097 240.806 57.0972C243.139 54.9812 243.068 51.0871 241.168 48.7211C239.258 46.4854 236.438 45.3447 233.938 43.9011C231.186 42.3097 228.207 40.669 226.591 37.8242C224.84 34.8596 224.787 31.1945 225.685 27.9518C226.673 24.4521 229.599 21.7023 233.022 20.5299Z" fill="#358486"/>
<path d="M280.713 34.335C284.122 32.1064 288.294 31.2332 292.335 31.3212C294.927 31.4128 297.719 32.2049 299.405 34.2857C301.096 36.3419 301.507 39.0882 301.628 41.6548C301.664 45.8904 301.603 50.1259 301.635 54.358C301.664 55.4459 301.824 56.7099 302.747 57.4317C303.265 57.8929 303.99 57.6394 304.611 57.6499C304.718 58.2238 304.821 58.8012 304.924 59.3892C302.541 60.7201 300.24 62.8326 297.317 62.6037C295.293 62.4171 294.139 60.4103 293.88 58.597C292.211 60.699 289.832 62.4523 287.062 62.646C284.207 62.9417 281.327 61.3081 279.988 58.8153C278.72 56.4669 278.561 53.5588 279.466 51.0625C280.404 48.6296 282.673 47.0347 284.974 45.9819C287.701 44.6159 290.758 44.2215 293.685 43.4681C293.55 41.5175 293.979 39.3487 292.886 37.6024C291.618 35.9722 289.217 36.1448 287.474 36.8067C285.411 37.5953 284.118 39.4508 282.946 41.2007C282.683 41.7569 282.023 41.4999 281.543 41.5598C281.263 39.1515 281.018 36.7398 280.713 34.335ZM287.996 49.7035C286.941 50.985 286.93 52.7454 287.115 54.3087C287.403 55.9247 288.791 57.5655 290.577 57.4246C291.724 57.407 292.672 56.6923 293.557 56.0515C293.614 53.006 293.553 49.9605 293.628 46.9149C291.511 47.1438 289.349 48.017 287.996 49.7035Z" fill="#358486"/>
<path d="M343.868 31.9057C347.866 30.6875 352.22 31.4233 355.977 33.0957C355.554 35.5462 355.306 38.0249 355.04 40.4965C354.468 40.4437 353.598 40.7429 353.335 40.0458C352.692 38.729 352.092 37.3383 350.967 36.3489C349.578 35.0216 347.259 34.5885 345.59 35.6483C343.95 36.7221 343.889 39.2959 345.274 40.6021C346.659 41.9118 348.477 42.6054 350.132 43.5068C352.664 44.8165 355.238 46.5206 356.481 49.1718C357.44 51.4075 357.437 53.9883 356.783 56.3085C355.856 59.5512 352.746 61.7869 349.503 62.4136C345.217 63.1776 340.8 62.1848 336.901 60.3962C337.277 57.7802 337.817 55.1889 338.268 52.587C338.754 52.6187 339.241 52.6574 339.735 52.7032C340.622 54.8931 341.837 57.1817 344.031 58.3224C345.633 59.2167 347.866 59.2942 349.241 57.9422C350.793 56.3331 350.224 53.4813 348.41 52.2983C345.345 50.1647 341.517 48.9676 339.152 45.9432C337.313 43.6899 337.139 40.5246 337.892 37.8242C338.694 35.0075 341.045 32.7295 343.868 31.9057Z" fill="#358486"/>
<path d="M209.223 33.8809C212.667 33.064 216.059 32.043 219.51 31.279C219.407 35.7997 219.077 40.3169 219.116 44.8447C219.102 50.552 218.875 56.3825 220.597 61.9066C216.985 61.8609 213.37 61.9242 209.755 61.8749C210.796 57.9211 211.261 53.8404 211.211 49.7598C211.155 44.4398 211.716 38.7959 209.223 33.8809Z" fill="#358486"/>
<path d="M141.099 20.4876C144.828 20.4771 148.557 20.5581 152.285 20.4489C150.836 26.7125 150.84 33.1732 150.854 39.5635C150.872 47.01 150.474 54.5798 152.26 61.882C148.507 61.9207 144.753 61.8679 141 61.9102C142.786 54.3439 142.357 46.5382 142.417 38.8347C142.406 32.7049 142.587 26.4871 141.099 20.4876Z" fill="#358485"/>
<path d="M265.66 31.5008C269.353 30.8389 273.092 31.7578 276.483 33.1943C275.979 35.9687 275.503 38.7502 275.148 41.5527C274.63 41.5633 274.115 41.5774 273.603 41.5879C272.932 39.6163 272.123 37.5672 270.546 36.1236C269.065 34.74 266.501 34.6484 265.028 36.0884C263.142 37.8876 262.524 40.5845 262.286 43.0737C262.091 46.5136 262.158 50.214 263.984 53.263C265.336 55.5586 267.851 57.4035 270.645 57.1218C272.659 57.2732 274.381 56.1325 275.897 54.9706C276.263 55.5093 276.661 56.0339 276.966 56.6183C276.934 57.3577 276.309 57.9034 275.894 58.4703C274.129 60.6567 271.537 62.1601 268.735 62.5474C265.06 63.0263 261.125 61.9735 258.398 59.428C255.901 57.2415 254.413 54.0763 253.994 50.8266C253.497 46.841 253.717 42.6125 255.568 38.9684C257.482 35.085 261.324 32.1486 265.66 31.5008Z" fill="#358485"/>
<path d="M166.77 31.6451C170.126 30.9656 173.812 31.2086 176.812 32.9584C180.353 34.9653 182.696 38.7044 183.385 42.6477C184.131 46.7671 183.932 51.1611 182.196 55.0234C180.964 57.9316 178.535 60.2906 175.619 61.5334C172.722 62.8467 169.376 62.9347 166.305 62.2305C162.615 61.3292 159.43 58.6569 157.917 55.203C155.865 50.5062 155.772 45.0595 157.377 40.2219C158.695 35.9793 162.423 32.6345 166.77 31.6451ZM168.517 35.4159C166.969 36.1342 166.198 37.7925 165.747 39.3381C164.849 42.6055 164.874 46.0347 165.002 49.3971C165.19 52.0589 165.513 54.8474 166.933 57.1782C167.778 58.5689 169.604 59.4773 171.198 58.8294C172.615 58.3259 173.524 56.9986 173.986 55.636C175.253 51.9356 175.158 47.9677 175.033 44.1159C174.813 41.5175 174.536 38.7009 172.885 36.5673C171.923 35.2399 170.012 34.7012 168.517 35.4159Z" fill="#358485"/>
<path d="M186.787 33.9126C189.948 32.9866 193.126 32.1205 196.318 31.3072C196.347 33.5077 196.297 35.7082 196.343 37.9087C197.565 35.673 198.818 33.1697 201.208 31.9691C203.122 30.9656 205.491 31.2332 207.277 32.388C206.737 35.3385 206.304 38.3171 206.069 41.3098C204.514 41.507 204.17 39.5916 202.87 39.1304C200.771 37.9017 198.019 39.2959 197.362 41.507C196.581 44.0596 196.762 46.7777 196.716 49.4112C196.638 53.6116 197.039 57.8471 198.246 61.8855C194.639 61.8961 191.034 61.9031 187.426 61.8785C188.446 58.164 188.943 54.3193 188.868 50.471C188.808 44.9257 189.454 39.0248 186.787 33.9126Z" fill="#358485"/>
<path d="M306.564 33.902C309.735 33.057 312.857 32.0113 316.07 31.3353C316.056 33.0992 316.07 34.8667 316.053 36.6341C317.459 34.7857 319.003 32.8633 321.223 31.9479C324.586 30.5642 329.12 31.3177 331.088 34.5885C332.782 37.5812 332.48 41.1584 332.419 44.4645C332.476 48.4641 332.242 52.4814 332.654 56.4705C332.835 58.3224 333.456 60.0934 333.826 61.9102C330.246 61.8644 326.663 61.9102 323.087 61.8714C324.852 56.1254 324.444 50.0661 324.472 44.1476C324.419 42.3731 324.458 40.4754 323.556 38.8839C322.302 36.8771 319.092 36.8067 317.558 38.5178C316.741 39.479 316.607 40.7887 316.521 41.9964C316.305 45.1686 316.415 48.3479 316.383 51.5237C316.322 55.0199 316.816 58.5126 317.743 61.8855C314.195 61.8749 310.651 61.9242 307.107 61.8433C308.965 55.5093 308.457 48.862 308.492 42.352C308.51 39.4262 307.846 36.532 306.564 33.902Z" fill="#358485"/>
<path d="M369.666 31.7543C370.046 30.2298 372.099 30.691 372.862 31.6663C372.099 33.5851 372.855 35.7469 371.992 37.6411C371.069 39.6304 368.864 40.9824 366.666 40.9366C367.603 40.0001 368.928 39.4895 369.656 38.3418C370.959 36.4792 370.693 34.0886 370.71 31.9479C370.448 31.8986 369.926 31.8036 369.666 31.7543Z" fill="#3B7F7E"/>
<path d="M365.199 31.7649C366.14 30.7579 367.426 31.5149 368.274 32.212C367.735 34.0006 368.303 35.9053 367.809 37.6939C367.195 38.2889 366.254 37.4334 366.275 36.7363C366.314 35.3174 366.438 33.902 366.346 32.4831C365.959 32.2437 365.576 32.0043 365.199 31.7649Z" fill="#408382"/>
<path d="M366.904 43.2005C368.392 43.123 369.894 42.866 371.239 42.2006C371.989 42.5456 372.649 43.0491 373.097 43.7533C372.049 44.6968 371.335 45.9186 370.451 46.9994C371.769 47.524 373.37 47.9818 374.055 49.3514C374.382 49.9499 374.304 50.985 373.427 50.9991C372.706 51.1787 372.415 50.3794 372.067 49.9323C371.502 49.0028 370.842 48.1296 370.014 47.4255C368.267 49.3373 366.023 50.9569 363.402 51.3794C364.031 50.4182 365.142 49.9746 365.987 49.2352C367.869 47.7811 369.432 45.915 370.416 43.7497C369.201 44.0103 368.061 44.4997 366.904 44.9257C365.7 44.9257 365.149 43.4857 365.362 42.4611C365.842 42.7393 366.272 43.292 366.904 43.2005Z" fill="#3D8381"/>
<path d="M366.201 52.9426C367.035 52.175 368.21 52.344 369.144 52.8123C369.144 53.4179 369.162 54.0305 369.187 54.6431C370.444 54.4847 371.808 53.4249 372.887 54.6502C372.212 55.8226 370.707 55.636 369.567 55.9775C369.691 56.4845 369.819 56.9951 369.947 57.5126C371.499 57.1429 373.072 56.1958 374.638 57.076C374.517 57.3084 374.276 57.7696 374.151 57.9985C372.866 58.2379 371.556 58.3048 370.274 58.5583C370.412 59.9737 371.41 61.4454 370.852 62.8502C370.327 62.9206 369.72 62.8291 369.478 62.3045C369.066 61.2341 369.024 60.0687 368.779 58.9597C367.649 59.2237 366.652 59.8328 365.558 60.1814C364.574 60.1462 363.871 59.185 363.903 58.2555C365.405 59.0899 367.028 58.1534 368.558 57.8894C368.434 57.3331 368.306 56.7838 368.178 56.2381C367.255 56.4388 366.229 57.245 365.302 56.6218C364.855 56.3824 364.784 55.8191 364.56 55.4212C365.682 55.6747 366.818 55.5198 367.891 55.1325C367.713 54.6115 367.539 54.0974 367.362 53.5869C366.968 53.3721 366.58 53.1573 366.201 52.9426Z" fill="#428281"/>
<path d="M368.043 64.5156C368.867 64.2797 369.72 64.2198 370.551 64.4874C370.554 65.0648 370.554 65.6493 370.568 66.2373C371.595 65.9838 372.582 65.5929 373.612 65.3324C374.229 65.5718 374.581 66.1668 374.982 66.6598C373.935 67.5576 373.004 68.6525 371.694 69.1877C371.996 68.2829 372.465 67.4484 372.951 66.6316C372.234 66.8111 371.524 67.0083 370.82 67.2196C371.176 68.8427 372.028 70.3637 371.982 72.0607C371.435 71.9973 370.728 72.1276 370.44 71.5291C370.032 70.2651 369.943 68.9237 369.57 67.6526C368.931 67.8991 368.32 68.2336 367.646 68.3638C366.943 68.1808 366.722 67.4308 366.428 66.878C367.415 66.9837 368.413 66.9273 369.364 66.6175C369.18 65.7725 368.665 65.093 368.043 64.5156Z" fill="#3D7A7A"/>
<path d="M364.752 73.5782C365.98 73.5359 367.337 73.5958 368.352 74.3774C368.91 74.7647 369.194 75.659 368.722 76.2188C368.306 76.5181 367.614 76.5955 367.291 76.1343C366.506 75.2189 365.618 74.4056 364.752 73.5782Z" fill="#428383"/>
<path d="M373.466 75.6484C373.945 75.2189 374.254 74.4373 375 74.4619C373.541 77.8701 370.547 80.4262 367.234 82C365.927 81.8873 364.663 80.7114 365.05 79.3277C365.696 79.7185 366.389 80.472 367.209 79.9967C369.535 78.9545 371.694 77.4757 373.466 75.6484Z" fill="#3C8383"/>
</svg>
