<svg width="378" height="93" viewBox="0 0 378 93" fill="none" xmlns="http://www.w3.org/2000/svg">
<g clip-path="url(#clip0_18_2)">
<path d="M121.592 32.913C115.273 30.8164 109.604 27.4982 104.254 23.5848C103.849 23.2887 103.449 22.9925 103.055 22.6964V22.6076H102.942C97.3956 18.3286 92.598 13.1492 88.7466 7.28266C88.3158 6.61636 88.0839 6.26545 88.0972 6.01669C88.2739 5.84568 88.6582 5.71464 89.2943 5.4992C90.4804 5.0972 91.6753 4.71741 92.8283 4.21768C93.0362 4.14076 93.2264 4.02242 93.3877 3.86976C93.549 3.71711 93.678 3.53327 93.767 3.32928C93.8868 3.13029 93.9565 2.90487 93.97 2.67262C93.9835 2.44038 93.9403 2.20833 93.8443 1.99668C93.5019 1.09051 92.7686 0.828434 91.8719 1.02832C91.4782 1.13578 91.0923 1.27009 90.7167 1.43033C89.0142 2.07157 87.2609 2.56713 85.4754 2.91173C75.6665 4.84017 65.6543 5.51181 55.6775 4.91063C47.8851 4.44644 40.1281 3.72462 32.6847 1.0994C31.7283 0.761804 30.8934 0.9306 30.4274 1.90562C30.4163 1.92561 30.4097 1.9456 30.4009 1.96559C30.392 1.98558 30.3412 2.07442 30.3125 2.13216C29.8973 3.00279 30.3678 3.90896 31.4544 4.32207C33.0006 4.90397 34.5776 5.41036 36.1568 5.9545C36.1339 6.07204 36.0984 6.18673 36.0508 6.29654C35.9006 6.56084 35.7085 6.81181 35.5406 7.07389C32.7543 11.4181 29.4267 15.3859 25.6389 18.8807C18.9597 25.0507 11.4699 29.9036 2.84705 32.8864C2.18443 33.1085 1.75373 33.4772 1.58365 33.9191C1.21922 34.4899 1.34511 35.2384 2.00331 36.0491C3.48537 37.877 5.03589 39.6471 6.48261 41.4994C6.78761 41.9299 7.19452 42.2773 7.66654 42.5099C8.13857 42.7426 8.66082 42.8533 9.18609 42.832C11.4103 42.8098 13.6367 42.872 15.8586 42.8031C16.8305 42.7743 17.1662 43.0052 17.164 44.0602C17.1287 58.5382 17.1287 73.0169 17.164 87.4963C17.1739 87.7213 17.147 87.9464 17.0845 88.1626C16.899 88.4158 16.5676 88.4825 16.0375 88.4758C12.804 88.4269 9.56819 88.4558 6.33241 88.4558C5.02485 88.4558 4.26284 88.7823 4.02871 89.4331C3.89907 89.6412 3.83232 89.8827 3.83655 90.1282C3.83655 91.0855 4.56543 91.5097 6.23744 91.5097H117.734C118.098 91.5339 118.463 91.5257 118.825 91.4853C119.366 91.3898 119.806 91.1388 119.978 90.6679C120.109 90.4661 120.179 90.2296 120.177 89.9883C120.177 89.2087 119.806 88.6557 119.004 88.5247C118.644 88.4724 118.281 88.4501 117.917 88.458C115.167 88.458 112.417 88.458 109.668 88.458C107.072 88.458 107.072 88.458 107.072 85.8728C107.072 71.9249 107.09 57.9748 107.044 44.0247C107.03 43.7365 107.065 43.4481 107.147 43.1718C107.368 42.8631 107.755 42.7809 108.413 42.8098C110.633 42.9009 112.861 42.8098 115.083 42.8453C115.548 42.8743 116.012 42.7882 116.436 42.5946C116.859 42.401 117.229 42.1058 117.513 41.7348C119.092 39.7359 120.705 37.737 122.268 35.727C122.404 35.5561 122.516 35.3679 122.602 35.1673C123.141 34.1679 122.763 33.3017 121.592 32.913Z" fill="white"/>
<path d="M108.353 42.9631C110.575 43.0541 112.802 42.9631 115.026 42.9986C115.491 43.0263 115.956 42.9385 116.38 42.7429C116.804 42.5473 117.173 42.2499 117.456 41.877C119.035 39.8781 120.649 37.8903 122.211 35.8803C123.057 34.7898 122.732 33.7659 121.427 33.3328C115.108 31.2339 109.438 27.9158 104.088 24.0046C97.9881 19.5503 92.7358 14.0273 88.5831 7.70021C87.6157 6.23435 87.6356 6.23435 89.2457 5.70131C90.4296 5.29931 91.6267 4.91952 92.7797 4.41979C93.5969 4.06221 94.0342 3.35815 93.6808 2.42089C93.3274 1.48363 92.6074 1.25487 91.7084 1.45476C91.3174 1.55696 90.9343 1.68761 90.5621 1.84565C88.8574 2.47886 87.1026 2.96625 85.3164 3.30263C75.5076 5.23206 65.4952 5.90371 55.5185 5.30153C47.7261 4.83734 39.9691 4.11552 32.5257 1.49029C31.5693 1.1527 30.7344 1.3215 30.2684 2.29652C29.8531 3.16493 30.3214 4.07332 31.4081 4.48642C32.9542 5.0661 34.5312 5.57471 36.1126 6.11886C36.0177 6.62081 35.6709 7.02725 35.3816 7.46479C32.5899 11.8114 29.2555 15.7801 25.46 19.2739C18.7896 25.4438 11.2998 30.3033 2.67918 33.2795C1.19934 33.7925 0.898951 34.923 1.94589 36.2157C3.42794 38.0435 4.97846 39.8137 6.42739 41.666C6.73204 42.0964 7.13857 42.4436 7.61021 42.6762C8.08185 42.9089 8.60373 43.0197 9.12866 42.9986C11.3528 42.9764 13.5792 43.0363 15.8012 42.9697C16.7753 42.9408 17.1088 43.1718 17.1066 44.2268C17.0712 58.7048 17.0712 73.1835 17.1066 87.6629C17.1066 88.6624 16.7819 88.8734 15.8653 88.8601C12.6317 88.8112 9.39591 88.8401 6.16013 88.8423C4.56985 88.8423 3.78354 89.322 3.77692 90.2859C3.77029 91.2499 4.5058 91.6674 6.1778 91.6674H117.676C118.039 91.6916 118.404 91.6834 118.765 91.643C119.461 91.5208 119.991 91.1499 120.004 90.3726C120.018 89.5952 119.633 89.04 118.832 88.9089C118.472 88.8562 118.108 88.8346 117.745 88.8445C114.994 88.8445 112.244 88.8445 109.495 88.8445C106.902 88.8445 106.902 88.8445 106.902 86.2593C106.902 72.3091 106.918 58.359 106.871 44.4089C106.867 43.1852 107.216 42.9053 108.353 42.9631ZM81.4865 7.38039C83.9912 6.85623 85.0955 7.54918 86.4782 9.64803C94.1115 21.2816 104.669 29.4149 117.33 34.8853C118.768 35.5072 118.781 35.5227 117.727 36.7265C116.936 37.6304 116.402 39.2162 115.331 39.2851C114.306 39.3495 113.208 38.2834 112.146 37.7082C99.0613 30.601 86.138 23.2339 73.8332 14.8163C71.1298 12.9706 68.466 11.0695 65.4754 8.97729C71.1099 8.80627 76.3556 8.45535 81.4865 7.38039ZM9.67863 38.9186C8.74213 39.445 8.22087 39.3628 7.63556 38.4744C7.077 37.6758 6.45663 36.9228 5.78023 36.2223C5.26781 35.6671 5.21922 35.4383 6.03203 35.0985C18.1027 30.0812 28.1679 22.4255 35.9315 11.8068C36.9122 10.4742 37.82 9.06835 38.6726 7.64025C39.0502 7.00504 39.4478 6.8318 40.1347 6.97394C45.968 8.14441 51.8719 8.71077 58.1049 8.97285C53.9083 12.0822 49.7802 14.7874 45.661 17.5037C33.9967 25.2084 21.8531 32.0801 9.67863 38.9164V38.9186ZM23.2755 88.8134C22.2419 88.6868 20.8923 89.2332 20.2341 88.5913C19.5759 87.9494 20.0265 86.5924 20.0133 85.5419C19.9934 78.9544 20.0133 72.3669 20.0133 65.775H19.9934C19.9934 58.5367 20.0133 51.2963 19.9713 44.058C19.9713 43.063 20.2496 42.7254 21.2015 42.9164C21.4813 42.9599 21.7645 42.9777 22.0475 42.9697C24.6405 43.0119 24.6405 43.0097 24.6405 45.686C24.6405 59.5939 24.6494 73.5026 24.667 87.412C24.6692 88.5336 24.3909 88.9378 23.2755 88.8112V88.8134ZM96.2761 84.4114C96.2131 85.5899 96.2131 86.7709 96.2761 87.9494C96.3092 88.7135 96.0155 88.9889 95.2932 88.9023C95.0909 88.89 94.8881 88.89 94.6858 88.9023C72.8106 88.9023 50.9339 88.9119 29.0558 88.9311C27.852 88.9311 27.3793 88.6779 27.5251 87.4075C27.6367 86.3956 27.6367 85.3744 27.5251 84.3625C27.4169 83.3187 27.8631 83.1676 28.7598 83.1765C33.1264 83.2143 37.4953 83.1565 41.8619 83.2165C43.1408 83.2343 43.9492 82.8078 44.6206 81.6995C47.5634 76.8433 50.2242 71.8199 52.5897 66.6545C52.6361 66.5523 52.6847 66.4546 52.7355 66.3569C52.8879 66.0615 53.0602 65.775 53.217 65.484L56.6516 56.54L57.4136 54.5611C57.4644 54.4612 57.5174 54.3612 57.5682 54.2591L57.5571 54.2391C58.5467 50.6433 59.545 47.0519 60.5124 43.4495C60.6582 42.9075 60.9696 42.8742 61.3959 42.8742C68.3909 42.8853 75.386 42.9031 82.3788 42.8742C83.2954 42.8742 83.3109 43.3606 83.3109 44.0336C83.3109 49.1152 83.3241 54.1991 83.3219 59.283C83.3219 66.5205 83.316 73.7587 83.3042 80.9977C83.3042 82.8633 83.6333 83.1321 85.513 83.1987C88.7046 83.3098 91.8962 83.3609 95.0834 83.1698C96.0685 83.1099 96.3357 83.4697 96.2761 84.4092V84.4114ZM27.534 44.0158C27.534 43.2229 27.7659 42.9875 28.5522 42.9564C32.6273 42.7965 36.709 42.7987 40.7753 42.4011C46.4119 41.8526 52.0044 41.1241 57.3827 39.2318C57.5382 39.1921 57.6973 39.1683 57.8575 39.1607L57.9901 39.0208C58.0917 39.1163 58.0607 39.1985 57.9613 39.274C56.3512 43.4384 53.9856 47.163 51.2071 50.6011C46.5687 56.3313 41.0469 60.9132 34.0872 63.5651C32.8305 64.0448 32.6339 65.2397 33.6742 66.2702C35.6422 68.2181 37.4511 70.268 38.7079 72.7778C39.7538 74.8413 40.4843 77.0516 40.8746 79.3342C41.0182 80.1759 40.7863 80.4447 39.8962 80.4447C36.0972 80.398 32.2982 80.4069 28.4992 80.4447C27.7747 80.4447 27.5317 80.2737 27.534 79.5008C27.559 67.6732 27.559 55.8449 27.534 44.0158ZM55.4986 49.8126C52.7996 59.5673 48.8415 68.7267 43.5715 77.6573C42.9796 75.1387 42.0519 73.0909 41.0823 71.0543C40.2164 69.2375 38.8139 67.8138 37.6654 66.2058C37.2546 65.6306 37.2722 65.3796 37.926 65.0465C44.8813 61.4929 50.6991 56.6067 55.1408 50.1191C55.2472 50.0026 55.3673 49.8997 55.4986 49.8126ZM96.2253 61.8282C96.2253 67.6028 96.2032 73.3663 96.2474 79.1365C96.2474 80.1271 96.0088 80.4691 94.9751 80.4491C92.4307 80.378 89.884 80.3958 87.3396 80.4491C86.476 80.4669 86.2485 80.1648 86.2507 79.3386C86.2728 67.6413 86.2728 55.9396 86.2507 44.2335C86.2507 43.3095 86.5334 43.0586 87.4279 43.0674C89.9547 43.0941 92.466 42.6743 95.0171 43.0341C96.0464 43.1785 96.2518 43.4628 96.2452 44.4112C96.2032 50.208 96.2209 56.0181 96.2209 61.8282H96.2253ZM103.993 66.0237C103.993 73.222 103.969 80.4202 104.018 87.6185C104.018 88.6668 103.715 88.9511 102.728 88.8689C101.84 88.8182 100.949 88.8264 100.062 88.8934C99.4301 88.9222 99.1629 88.6713 99.2181 88.0383C99.238 87.7962 99.2181 87.5497 99.2181 87.3054C99.2181 73.0317 99.21 58.7573 99.1938 44.4822C99.1938 43.3184 99.3705 42.721 100.691 42.9031C101.723 43.0475 103.079 42.4589 103.742 43.1052C104.459 43.7982 103.962 45.1818 103.978 46.259C104 52.8465 103.989 59.434 103.989 66.0237H103.993ZM92.8261 40.1202C82.8353 40.1202 72.8452 40.1128 62.8559 40.098C61.3407 40.098 61.3539 40.098 61.6698 38.6521C61.8368 37.9413 61.9615 37.2212 62.0431 36.4955C62.1999 34.8853 61.2855 34.31 59.7659 35.063C56.3666 36.7443 52.7731 37.797 49.0536 38.4389C43.5472 39.3939 37.9901 39.7715 32.4086 39.9736C26.1977 40.1957 19.989 40.0469 13.7073 39.9025C14.8853 39.2481 16.0633 38.5914 17.2413 37.9325C31.5538 29.9369 45.6057 21.5104 58.931 11.9135C59.4257 11.5581 59.9867 11.2649 60.3887 10.8252C61.3827 9.73687 62.1557 10.0589 63.2314 10.8452C75.5781 19.9246 88.5676 27.9868 101.97 35.385C104.685 36.8849 107.398 38.3856 110.109 39.887L110.036 40.1224C104.306 40.1224 98.5687 40.1217 92.8261 40.1202Z" fill="white" stroke="white" stroke-width="2.63" stroke-miterlimit="10"/>
<path d="M108.468 42.7254C110.688 42.8165 112.914 42.7254 115.139 42.7609C115.604 42.7881 116.069 42.6991 116.492 42.5018C116.915 42.3046 117.284 42.0053 117.564 41.6304C119.143 39.6315 120.758 37.6438 122.321 35.6337C123.165 34.5432 122.84 33.5171 121.535 33.084C115.216 30.9874 109.546 27.6692 104.197 23.7558C98.0956 19.3015 92.8432 13.7776 88.6913 7.44924C87.7239 5.98338 87.7438 5.9856 89.3539 5.45034C90.5378 5.05056 91.735 4.66854 92.8879 4.17104C93.7073 3.81346 94.1425 3.10718 93.7891 2.17214C93.4357 1.2371 92.7156 1.00389 91.8167 1.20378C91.426 1.307 91.0429 1.43761 90.6703 1.59468C88.968 2.2365 87.2146 2.73208 85.429 3.07609C75.621 5.00561 65.6093 5.67726 55.6334 5.07499C47.841 4.61302 40.0817 3.89119 32.6405 1.26375C31.6842 0.928378 30.847 1.09717 30.381 2.07219C29.9658 2.94061 30.434 3.849 31.5207 4.25988C33.0668 4.84178 34.6438 5.34817 36.2253 5.89454C36.1303 6.39648 35.7835 6.80071 35.4942 7.24046C32.708 11.5841 29.3813 15.5518 25.5947 19.0473C18.9023 25.2172 11.4125 30.0812 2.79183 33.0529C1.31198 33.5638 1.0116 34.6943 2.06074 35.9869C3.54059 37.8148 5.09111 39.5871 6.54003 41.4394C6.84638 41.8677 7.25391 42.2125 7.72588 42.4428C8.19785 42.6731 8.7194 42.7817 9.24351 42.7587C11.4655 42.7365 13.6919 42.7987 15.9139 42.7321C16.8879 42.701 17.2236 42.932 17.2192 43.9892C17.1839 58.4671 17.1839 72.9451 17.2192 87.4231C17.2192 88.4247 16.8945 88.6357 15.9801 88.6224C12.7443 88.5735 9.50856 88.6024 6.27278 88.6024C4.6825 88.6024 3.8984 89.0821 3.88956 90.0483C3.88073 91.0144 4.62065 91.4275 6.29266 91.4275C43.4567 91.4275 80.6221 91.4275 117.789 91.4275C118.152 91.4513 118.516 91.4439 118.878 91.4053C119.574 91.2809 120.104 90.91 120.117 90.1327C120.13 89.3553 119.746 88.8112 118.946 88.669C118.587 88.6175 118.223 88.596 117.86 88.6046C115.109 88.6046 112.359 88.6046 109.61 88.6046C107.015 88.6046 107.015 88.6046 107.015 86.0194C107.015 72.0693 107.033 58.1214 106.984 44.1713C106.98 42.9631 107.329 42.6788 108.468 42.7254ZM81.5991 7.15162C84.0928 6.62747 85.217 7.32264 86.5908 9.41705C94.2242 21.0484 104.782 29.184 117.442 34.6543C118.88 35.2762 118.893 35.2917 117.84 36.4955C117.051 37.3972 116.515 38.9852 115.446 39.0541C114.419 39.1185 113.321 38.0524 112.258 37.475C99.1739 30.3678 86.2507 23.0029 73.9459 14.5853C71.2446 12.7374 68.5787 10.8363 65.5903 8.7463C71.2225 8.57751 76.4815 8.22881 81.5991 7.15162ZM9.79348 38.6898C8.85478 39.2162 8.33352 39.134 7.75041 38.2456C7.19106 37.4476 6.57074 36.6947 5.89509 35.9935C5.38266 35.4361 5.33186 35.2073 6.14467 34.8697C18.2154 29.8591 28.2827 22.1989 36.0442 11.5781C37.0248 10.2455 37.9348 8.83959 38.7852 7.4137C39.1629 6.7785 39.5605 6.60526 40.2496 6.7474C46.0828 7.92009 51.9845 8.48423 58.2176 8.75963C54.021 11.869 49.8951 14.572 45.7758 17.2905C34.1093 24.9729 21.9658 31.858 9.79348 38.6898ZM23.3882 88.5824C22.3545 88.458 21.005 89.0022 20.3468 88.3603C19.6886 87.7184 20.1391 86.3614 20.1259 85.3131C20.1082 78.7234 20.1259 72.1359 20.1259 65.5462H20.106C20.106 58.3057 20.1259 51.0675 20.0839 43.8292C20.0839 42.832 20.3622 42.4966 21.3142 42.6876C21.5941 42.7303 21.8772 42.7474 22.1601 42.7387C24.7554 42.7809 24.7554 42.7809 24.7554 45.455C24.7554 59.3651 24.7399 73.2731 24.7797 87.181C24.7841 88.307 24.5036 88.7157 23.3882 88.5824ZM96.3909 84.1826C96.3269 85.3603 96.3269 86.5407 96.3909 87.7185C96.4263 88.4847 96.1303 88.7579 95.4081 88.6713C95.2065 88.6601 95.0045 88.6601 94.8029 88.6713C72.9262 88.6713 51.0488 88.6801 29.1706 88.6979C27.9669 88.6979 27.4942 88.4447 27.6422 87.1743C27.7526 86.1623 27.7526 85.1413 27.6422 84.1293C27.534 83.0854 27.9801 82.9366 28.8769 82.9433C33.2435 82.9833 37.6124 82.9233 41.979 82.9855C43.2579 83.0033 44.0663 82.5768 44.7377 81.4686C47.6805 76.6116 50.3413 71.5874 52.7068 66.4213C52.7532 66.3213 52.8018 66.2214 52.8526 66.1237C53.0072 65.8305 53.1773 65.544 53.3341 65.2508L56.7708 56.309C57.0226 55.6502 57.2759 54.9898 57.5307 54.3279C57.5815 54.228 57.6345 54.128 57.6875 54.0281L57.6764 54.0059C58.6659 50.4123 59.6643 46.8187 60.6295 43.2185C60.7753 42.6765 61.0867 42.641 61.513 42.6432C68.508 42.6432 75.503 42.6699 82.4959 42.6432C83.4125 42.6432 83.4257 43.1274 83.4257 43.8004C83.4257 48.8842 83.439 53.9681 83.439 59.0498C83.439 66.2887 83.4331 73.5277 83.4213 80.7667C83.4213 82.6324 83.7482 82.8989 85.63 82.9655C88.8194 83.0788 92.011 83.1299 95.1982 82.9389C96.1811 82.8833 96.4484 83.2431 96.3909 84.1826ZM27.6466 43.787C27.6466 42.9941 27.8675 42.7609 28.6648 42.7298C32.7399 42.5699 36.8216 42.5699 40.8901 42.1746C46.5246 41.626 52.1171 40.8975 57.4953 39.003C57.6519 38.9652 57.8116 38.9421 57.9724 38.9342L58.1027 38.792C58.2043 38.8897 58.1756 38.9719 58.0762 39.0474C56.4638 43.2118 54.1005 46.9364 51.3197 50.3745C46.6814 56.1047 41.1596 60.6844 34.1999 63.3363C32.9431 63.816 32.7488 65.0132 33.7869 66.0415C35.7548 67.9893 37.5638 70.0393 38.8205 72.5512C39.8665 74.6147 40.5969 76.8251 40.9873 79.1076C41.1309 79.9494 40.9012 80.2181 40.0088 80.2181C36.2098 80.1693 32.4108 80.1804 28.6118 80.2181C27.8874 80.2181 27.6444 80.0471 27.6466 79.2764C27.6716 67.4444 27.6716 55.6146 27.6466 43.787ZM55.6068 49.5861C52.9122 59.3385 48.9542 68.5001 43.6952 77.4285C43.1011 74.9099 42.1734 72.8622 41.2038 70.8255C40.3401 69.0087 38.9354 67.5851 37.7869 65.9771C37.3871 65.3952 37.3871 65.1531 38.0497 64.8177C45.0028 61.2641 50.8205 56.3779 55.2623 49.8926C55.3639 49.7762 55.4796 49.6733 55.6068 49.5861ZM96.3335 61.5995C96.3335 67.3741 96.3136 73.1487 96.3556 78.91C96.3556 79.9005 96.1171 80.2426 95.0834 80.2226C92.5389 80.1515 89.9923 80.167 87.4478 80.2226C86.5842 80.2381 86.3589 79.9361 86.3589 79.101C86.381 67.4037 86.381 55.702 86.3589 43.9958C86.3589 43.0741 86.6394 42.8231 87.534 42.832C90.0607 42.8564 92.5721 42.4389 95.1231 42.7965C96.1546 42.9408 96.3578 43.2273 96.3534 44.1735C96.3158 49.9792 96.3335 55.7893 96.3335 61.5995ZM104.102 65.7949C104.102 72.9932 104.077 80.1915 104.126 87.3897C104.126 88.4403 103.826 88.7223 102.836 88.6402C101.948 88.5891 101.057 88.598 100.17 88.6668C99.5384 88.6957 99.2711 88.4447 99.3263 87.8095C99.3484 87.5674 99.3263 87.3231 99.3263 87.0788C99.3263 72.8022 99.319 58.5271 99.3042 44.2535C99.3042 43.0919 99.4787 42.4922 100.8 42.6765C101.831 42.8187 103.187 42.2323 103.85 42.8787C104.568 43.5716 104.082 44.9531 104.086 46.0303C104.115 52.6177 104.102 59.2075 104.102 65.7949ZM92.9387 39.8936L62.9663 39.8714C61.4511 39.8714 61.4644 39.8714 61.7802 38.4255C61.9471 37.7139 62.0725 36.9931 62.1557 36.2667C62.3103 34.6587 61.3959 34.0835 59.8763 34.8342C56.4771 36.5155 52.8835 37.5682 49.1662 38.2123C43.6576 39.1651 38.1005 39.5449 32.5191 39.747C26.3081 39.9691 20.0994 39.8203 13.82 39.676C14.9994 39.0097 16.1833 38.3656 17.3539 37.7059C31.6665 29.7103 45.7184 21.2839 59.0458 11.6869C59.5384 11.3315 60.1016 11.0384 60.5036 10.5986C61.4975 9.50811 62.2706 9.83015 63.3462 10.6164C75.6908 19.6981 88.6803 27.7603 102.083 35.1585C104.803 36.6598 107.518 38.1598 110.231 39.6582L110.156 39.8936H92.9387Z" fill="#2F8686"/>
<path d="M95.1916 82.9411C92.0044 83.1321 88.8128 83.081 85.6234 82.9677C83.7504 82.9011 83.4147 82.6346 83.4147 80.7689C83.4147 73.5285 83.4206 66.2895 83.4324 59.052C83.4324 53.9703 83.4147 48.8865 83.4191 43.8026C83.4191 43.1363 83.4059 42.641 82.4892 42.6455C75.492 42.6654 68.497 42.6455 61.5063 42.6455C61.0646 42.6455 60.7642 42.6788 60.6229 43.2207C59.6621 46.8209 58.6593 50.4145 57.6698 54.0081C59.5671 52.9731 61.3694 51.7671 63.5406 51.2763C71.6002 49.4528 80.0795 56.0203 79.3087 64.9421C79.1308 67.2669 78.2175 69.4735 76.7024 71.2386C76.5342 71.4033 76.4174 71.6137 76.3664 71.8441C76.3154 72.0745 76.3324 72.3148 76.4152 72.5357C76.7907 73.8683 77.0602 75.2009 77.4644 76.5202C77.8067 77.6307 77.3694 77.6307 76.5411 77.3375C75.0613 76.8067 73.5682 76.3092 72.0906 75.7828C71.6452 75.592 71.1441 75.5801 70.6902 75.7495C63.4014 78.4591 55.2645 73.9172 53.6234 66.0526C53.547 65.7806 53.4503 65.5148 53.3341 65.2575C53.1772 65.5506 53.0072 65.8371 52.8526 66.1303C52.8018 66.228 52.7532 66.328 52.7068 66.4279C50.3413 71.5941 47.6805 76.6182 44.7377 81.4752C44.0751 82.5857 43.2579 83.0099 41.979 82.9922C37.6124 82.93 33.2435 82.9922 28.8769 82.95C27.9801 82.95 27.534 83.0921 27.6422 84.136C27.7526 85.1479 27.7526 86.169 27.6422 87.181C27.4942 88.4514 27.9669 88.7068 29.1706 88.7046C51.0488 88.6661 72.9262 88.6572 94.8029 88.6779C95.0045 88.6668 95.2065 88.6668 95.4081 88.6779C96.1303 88.7645 96.4263 88.4914 96.3909 87.7251C96.3269 86.5474 96.3269 85.367 96.3909 84.1893C96.4484 83.2431 96.1811 82.8833 95.1916 82.9411Z" fill="#EFE0C1"/>
<path d="M95.1231 42.792C92.5721 42.4345 90.0607 42.852 87.534 42.8276C86.6394 42.8276 86.3567 43.0697 86.3589 43.9914C86.3869 55.6887 86.3869 67.3904 86.3589 79.0965C86.3589 79.9316 86.5798 80.2337 87.4478 80.2181C89.9923 80.167 92.5389 80.1515 95.0834 80.2181C96.1171 80.247 96.3622 79.8961 96.3556 78.9055C96.3136 73.1309 96.3335 67.3563 96.3335 61.595C96.3335 55.7849 96.3159 49.9748 96.3534 44.1646C96.36 43.2229 96.1546 42.9364 95.1231 42.792Z" fill="#52A7A7"/>
<path d="M53.6168 66.0437C55.2579 73.9083 63.3992 78.4502 70.6836 75.7406C71.1374 75.5712 71.6386 75.5831 72.0839 75.7739C73.5616 76.3092 75.0547 76.8067 76.5345 77.3286C77.3628 77.6284 77.8001 77.6218 77.4578 76.5113C77.0536 75.2009 76.7841 73.8461 76.4086 72.5268C76.3258 72.306 76.3088 72.0656 76.3598 71.8352C76.4108 71.6048 76.5276 71.3944 76.6958 71.2297C78.2141 69.4642 79.1299 67.2559 79.3087 64.9287C80.0795 56.007 71.6002 49.4395 63.5406 51.2629C61.3694 51.7538 59.5649 52.9598 57.6698 53.9948L57.6808 54.017C57.6278 54.1169 57.5748 54.2169 57.524 54.3168C57.2693 54.9787 57.016 55.639 56.7642 56.2979L53.3274 65.2397C53.4441 65.4999 53.5408 65.7687 53.6168 66.0437ZM67.5671 59.9759C69.3208 58.9054 71.2005 58.2657 73.2811 58.2502C74.0122 58.2502 74.3037 58.4856 74.2882 59.2208C74.2595 60.6422 74.2882 62.0637 74.2882 63.4829C74.2882 64.9043 74.2662 66.3258 74.2882 67.7472C74.3037 68.4357 74.1336 68.7844 73.354 68.8C71.3661 68.8333 69.4291 69.1997 67.6687 70.2214C67.0061 70.6079 66.7455 70.4257 66.7521 69.6439C66.7712 66.924 66.7668 64.204 66.7388 61.484C66.7207 61.1795 66.7889 60.8762 66.9355 60.6092C67.0822 60.3422 67.3012 60.1226 67.5671 59.9759ZM58.4274 63.3963H58.4451C58.4451 61.977 58.4716 60.5556 58.4451 59.1364C58.4252 58.4368 58.7123 58.2058 59.3705 58.2191C61.4387 58.2272 63.4591 58.845 65.1817 59.9959C65.4525 60.1742 65.671 60.422 65.8146 60.7137C65.9583 61.0054 66.0219 61.3303 65.9989 61.655C65.9768 64.2935 65.9658 66.9299 65.9834 69.5662C65.9834 70.3436 65.8156 70.6767 65.0359 70.1947C63.333 69.1353 61.418 68.8621 59.4787 68.76C58.677 68.72 58.4163 68.4046 58.4296 67.6495C58.4451 66.2391 58.4274 64.8199 58.4274 63.3963Z" fill="#FDFDFD"/>
<path d="M38.0497 64.8177C37.3871 65.1531 37.376 65.4018 37.7869 65.9771C38.9354 67.5851 40.3401 69.0087 41.2038 70.8255C42.1734 72.8622 43.1011 74.9099 43.6952 77.4286C48.9542 68.5001 52.9122 59.3385 55.6068 49.5861C55.4796 49.6733 55.3639 49.7763 55.2623 49.8926C50.8205 56.3779 45.0028 61.2663 38.0497 64.8177Z" fill="#52A7A7"/>
<path d="M66.7476 69.6439C66.7476 70.4257 66.9994 70.6079 67.6643 70.2214C69.4312 69.1997 71.355 68.8333 73.3495 68.8C74.1292 68.7844 74.2993 68.4357 74.2838 67.7472C74.2529 66.3258 74.2838 64.9043 74.2838 63.4829C74.2838 62.0637 74.2639 60.6422 74.2838 59.2208C74.2993 58.4856 74.0077 58.2458 73.2766 58.2502C71.196 58.2658 69.3164 58.9054 67.5627 59.9759C67.2959 60.122 67.076 60.3414 66.9286 60.6084C66.7811 60.8754 66.7123 61.1791 66.73 61.484C66.7624 64.2025 66.7683 66.9225 66.7476 69.6439Z" fill="#52A7A7"/>
<path d="M59.4743 68.7667C61.4136 68.8622 63.3285 69.142 65.0315 70.2014C65.8112 70.6856 65.9834 70.3502 65.979 69.5729C65.9613 66.9366 65.979 64.3002 65.9945 61.6617C66.0175 61.337 65.9539 61.0121 65.8102 60.7204C65.6665 60.4287 65.448 60.1809 65.1773 60.0026C63.4547 58.8517 61.4343 58.2339 59.3661 58.2258C58.7035 58.2125 58.4208 58.4479 58.4406 59.1431C58.4782 60.5623 58.4406 61.9837 58.4406 63.4029H58.423C58.423 64.8244 58.4406 66.2436 58.423 67.6628C58.4053 68.4113 58.6659 68.7267 59.4743 68.7667Z" fill="#52A7A7"/>
</g>
<path d="M372.73 8.09092C373.888 7.7318 375.706 8.46061 375.56 9.85134C374.857 10.6435 373.994 11.2773 373.234 12.0167C373.934 12.5131 373.707 13.3968 373.732 14.1291C373.625 15.7065 373.948 17.3155 373.515 18.8611C372.865 18.7872 372.009 18.6076 371.906 17.8401C371.839 16.2099 372.173 14.5904 372.215 12.9638C370.561 14.0482 368.884 15.203 366.935 15.6818C367.716 14.6009 368.98 14.0411 369.925 13.1292C371.246 11.83 372.78 10.6118 373.536 8.88663C373.337 8.68947 372.933 8.29161 372.73 8.09092Z" fill="#398080"/>
<path d="M371.676 20.1849C372.627 19.4737 373.994 19.8188 374.687 20.7236C374.509 21.3222 374.346 21.9242 374.19 22.5298C375.138 22.3362 376.225 21.8644 377.119 22.4911C377.677 22.7199 377.506 23.3678 377.574 23.8396C376.462 23.8008 375.355 23.7058 374.247 23.6494C374.172 25.512 374.438 27.3674 374.389 29.2264C374.36 30.0468 373.497 30.3989 372.787 30.4305C372.269 29.5715 371.42 29.0293 370.614 28.473C371.31 28.2547 372.038 28.3603 372.759 28.4061C372.819 27.4132 372.784 26.4203 372.684 25.4345C371.477 27.1843 369.648 28.3709 367.759 29.2863C367.301 29.5327 366.779 29.5715 366.278 29.5855C368.167 27.7758 370.397 26.2408 371.803 23.9698C370.799 24.1071 369.865 24.5613 368.863 24.667C367.862 24.5543 367.503 23.4663 367.453 22.6108C369.133 23.3713 370.955 22.8537 372.709 22.7692C372.684 22.1742 372.663 21.5827 372.634 20.9947C372.308 20.7377 371.704 20.6814 371.676 20.1849Z" fill="#408282"/>
<path d="M233.022 28.9095C238.171 27.0751 243.764 28.325 248.796 29.934C248.384 33.0218 247.954 36.1025 247.649 39.2009C247.162 39.2959 246.679 39.3839 246.196 39.4825C245.234 37.4862 244.321 35.3737 242.542 33.9443C240.444 32.1486 237.166 31.7613 234.709 33.0324C232.564 34.2189 232.315 37.0391 232.887 39.1692C233.661 41.764 236.253 43.109 238.473 44.3272C241.882 46.0418 245.404 47.8304 247.922 50.7703C252.208 55.9952 251.115 64.8817 245.337 68.6068C241.655 71.0819 236.967 71.4094 232.685 70.7334C229.861 70.3426 227.127 69.4799 224.507 68.3779C224.901 65.0226 225.483 61.6884 225.771 58.3189C226.47 58.4281 227.521 58.2626 227.763 59.1428C228.828 61.6285 230.359 64.0192 232.606 65.607C234.979 67.2301 238.576 67.4766 240.806 65.4768C243.139 63.3608 243.068 59.4667 241.168 57.1007C239.258 54.865 236.438 53.7242 233.938 52.2807C231.186 50.6893 228.207 49.0486 226.591 46.2038C224.84 43.2392 224.787 39.5741 225.685 36.3314C226.673 32.8317 229.599 30.0819 233.022 28.9095Z" fill="#358486"/>
<path d="M280.713 42.7146C284.122 40.4859 288.294 39.6128 292.335 39.7008C294.927 39.7923 297.719 40.5845 299.405 42.6653C301.096 44.7215 301.507 47.4677 301.628 50.0344C301.664 54.27 301.603 58.5055 301.635 62.7376C301.664 63.8255 301.824 65.0895 302.747 65.8112C303.265 66.2725 303.99 66.019 304.611 66.0295C304.718 66.6034 304.821 67.1808 304.924 67.7688C302.541 69.0997 300.24 71.2122 297.317 70.9833C295.293 70.7967 294.139 68.7898 293.88 66.9766C292.211 69.0786 289.832 70.8319 287.062 71.0256C284.207 71.3213 281.327 69.6877 279.988 67.1949C278.72 64.8465 278.561 61.9383 279.466 59.4421C280.404 57.0092 282.673 55.4142 284.974 54.3615C287.701 52.9954 290.758 52.6011 293.685 51.8476C293.55 49.8971 293.979 47.7283 292.886 45.9819C291.618 44.3518 289.217 44.5243 287.474 45.1863C285.411 45.9749 284.118 47.8304 282.946 49.5802C282.683 50.1365 282.023 49.8795 281.543 49.9394C281.263 47.5311 281.018 45.1194 280.713 42.7146ZM287.996 58.083C286.941 59.3646 286.93 61.125 287.115 62.6883C287.403 64.3043 288.791 65.945 290.577 65.8042C291.724 65.7866 292.672 65.0719 293.557 64.4311C293.614 61.3856 293.553 58.34 293.628 55.2945C291.511 55.5234 289.349 56.3966 287.996 58.083Z" fill="#358486"/>
<path d="M343.868 40.2852C347.866 39.067 352.22 39.8029 355.977 41.4753C355.554 43.9258 355.306 46.4044 355.04 48.8761C354.468 48.8232 353.598 49.1225 353.335 48.4254C352.692 47.1086 352.092 45.7179 350.967 44.7285C349.578 43.4012 347.259 42.9681 345.59 44.0279C343.95 45.1017 343.889 47.6755 345.274 48.9817C346.659 50.2914 348.477 50.985 350.132 51.8864C352.664 53.1961 355.238 54.9002 356.481 57.5514C357.44 59.7871 357.437 62.3679 356.783 64.6881C355.856 67.9308 352.746 70.1665 349.503 70.7932C345.217 71.5572 340.8 70.5643 336.901 68.7758C337.277 66.1598 337.817 63.5685 338.268 60.9666C338.754 60.9983 339.241 61.037 339.735 61.0828C340.622 63.2727 341.837 65.5612 344.031 66.702C345.633 67.5963 347.866 67.6737 349.241 66.3217C350.793 64.7127 350.224 61.8609 348.41 60.6779C345.345 58.5443 341.517 57.3472 339.152 54.3228C337.313 52.0694 337.139 48.9042 337.892 46.2037C338.694 43.3871 341.045 41.1091 343.868 40.2852Z" fill="#358486"/>
<path d="M209.223 42.2605C212.667 41.4436 216.059 40.4226 219.51 39.6586C219.407 44.1793 219.077 48.6965 219.116 53.2243C219.102 58.9315 218.875 64.762 220.597 70.2862C216.985 70.2404 213.37 70.3038 209.755 70.2545C210.796 66.3006 211.261 62.22 211.211 58.1394C211.155 52.8194 211.716 47.1755 209.223 42.2605Z" fill="#358486"/>
<path d="M213.651 27.3533C215.249 26.9519 217.085 27.223 218.328 28.3532C220.448 30.1171 220.313 33.8985 217.93 35.3843C215.6 37.1341 211.737 36.356 210.572 33.6063C209.212 31.1452 210.949 27.892 213.651 27.3533Z" fill="#358385"/>
<path d="M141.099 28.8672C144.828 28.8567 148.557 28.9377 152.285 28.8285C150.836 35.0921 150.84 41.5528 150.854 47.9431C150.872 55.3896 150.474 62.9594 152.26 70.2616C148.507 70.3003 144.753 70.2475 141 70.2897C142.786 62.7235 142.357 54.9178 142.417 47.2142C142.406 41.0845 142.587 34.8667 141.099 28.8672Z" fill="#358485"/>
<path d="M265.66 39.8804C269.353 39.2185 273.092 40.1374 276.483 41.5739C275.979 44.3483 275.503 47.1297 275.148 49.9323C274.63 49.9429 274.115 49.957 273.603 49.9675C272.932 47.9959 272.123 45.9468 270.546 44.5032C269.065 43.1195 266.501 43.028 265.028 44.468C263.142 46.2671 262.524 48.9641 262.286 51.4533C262.091 54.8932 262.158 58.5936 263.984 61.6426C265.336 63.9382 267.851 65.7831 270.645 65.5014C272.659 65.6528 274.381 64.5121 275.897 63.3502C276.263 63.8889 276.661 64.4135 276.966 64.9979C276.934 65.7373 276.309 66.283 275.894 66.8499C274.129 69.0363 271.537 70.5397 268.735 70.927C265.06 71.4058 261.125 70.3531 258.398 67.8076C255.901 65.6211 254.413 62.4559 253.994 59.2062C253.497 55.2206 253.717 50.9921 255.568 47.348C257.482 43.4646 261.324 40.5282 265.66 39.8804Z" fill="#358485"/>
<path d="M166.77 40.0247C170.126 39.3452 173.812 39.5881 176.812 41.338C180.353 43.3449 182.696 47.084 183.385 51.0273C184.131 55.1466 183.932 59.5406 182.196 63.403C180.964 66.3112 178.535 68.6701 175.619 69.913C172.722 71.2263 169.376 71.3143 166.305 70.6101C162.615 69.7088 159.43 67.0365 157.917 63.5826C155.865 58.8858 155.772 53.439 157.377 48.6014C158.695 44.3588 162.423 41.0141 166.77 40.0247ZM168.517 43.7955C166.969 44.5138 166.198 46.1721 165.747 47.7177C164.849 50.985 164.874 54.4143 165.002 57.7767C165.19 60.4384 165.513 63.2269 166.933 65.5577C167.778 66.9485 169.604 67.8568 171.198 67.209C172.615 66.7055 173.524 65.3782 173.986 64.0156C175.253 60.3152 175.158 56.3472 175.033 52.4955C174.813 49.8971 174.536 47.0805 172.885 44.9468C171.923 43.6195 170.012 43.0808 168.517 43.7955Z" fill="#358485"/>
<path d="M186.787 42.2921C189.948 41.3662 193.126 40.5 196.318 39.6867C196.347 41.8873 196.297 44.0878 196.343 46.2883C197.565 44.0526 198.818 41.5492 201.208 40.3486C203.122 39.3452 205.491 39.6128 207.277 40.7676C206.737 43.7181 206.304 46.6967 206.069 49.6894C204.514 49.8866 204.17 47.9712 202.87 47.51C200.771 46.2812 198.019 47.6755 197.362 49.8866C196.581 52.4392 196.762 55.1572 196.716 57.7908C196.638 61.9912 197.039 66.2267 198.246 70.2651C194.639 70.2757 191.034 70.2827 187.426 70.258C188.446 66.5436 188.943 62.6988 188.868 58.8506C188.808 53.3053 189.454 47.4044 186.787 42.2921Z" fill="#358485"/>
<path d="M306.564 42.2816C309.735 41.4366 312.857 40.3909 316.07 39.7149C316.056 41.4788 316.07 43.2463 316.053 45.0137C317.459 43.1653 319.003 41.2429 321.223 40.3275C324.586 38.9438 329.12 39.6973 331.088 42.9681C332.782 45.9608 332.48 49.538 332.419 52.844C332.476 56.8437 332.242 60.861 332.654 64.8501C332.835 66.702 333.456 68.473 333.826 70.2897C330.246 70.244 326.663 70.2897 323.087 70.251C324.852 64.505 324.444 58.4457 324.472 52.5272C324.419 50.7527 324.458 48.8549 323.556 47.2635C322.302 45.2567 319.092 45.1863 317.558 46.8974C316.741 47.8586 316.607 49.1683 316.521 50.3759C316.305 53.5482 316.415 56.7275 316.383 59.9033C316.322 63.3995 316.816 66.8921 317.743 70.2651C314.195 70.2545 310.651 70.3038 307.107 70.2228C308.965 63.8889 308.457 57.2416 308.492 50.7316C308.51 47.8057 307.846 44.9116 306.564 42.2816Z" fill="#358485"/>
<path d="M372.666 32.7543C373.046 31.2298 375.099 31.691 375.862 32.6663C375.099 34.5851 375.855 36.7469 374.992 38.6411C374.069 40.6304 371.864 41.9824 369.666 41.9366C370.603 41.0001 371.928 40.4895 372.656 39.3418C373.959 37.4792 373.693 35.0886 373.71 32.9479C373.448 32.8986 372.926 32.8036 372.666 32.7543Z" fill="#3B7F7E"/>
<path d="M368.199 32.7649C369.14 31.7579 370.426 32.5149 371.274 33.212C370.735 35.0006 371.303 36.9053 370.809 38.6939C370.195 39.2889 369.254 38.4334 369.275 37.7363C369.314 36.3174 369.438 34.902 369.346 33.4831C368.959 33.2437 368.576 33.0043 368.199 32.7649Z" fill="#408382"/>
<path d="M369.904 44.2005C371.392 44.123 372.894 43.866 374.239 43.2006C374.989 43.5456 375.649 44.0491 376.097 44.7533C375.049 45.6968 374.335 46.9186 373.451 47.9994C374.769 48.524 376.37 48.9818 377.055 50.3514C377.382 50.9499 377.304 51.985 376.427 51.9991C375.706 52.1787 375.415 51.3794 375.067 50.9323C374.502 50.0028 373.842 49.1296 373.014 48.4255C371.267 50.3373 369.023 51.9569 366.402 52.3794C367.031 51.4182 368.142 50.9746 368.987 50.2352C370.869 48.7811 372.432 46.915 373.416 44.7497C372.201 45.0103 371.061 45.4997 369.904 45.9257C368.7 45.9257 368.149 44.4857 368.362 43.4611C368.842 43.7393 369.272 44.292 369.904 44.2005Z" fill="#3D8381"/>
<path d="M369.201 53.9426C370.035 53.175 371.21 53.344 372.144 53.8123C372.144 54.4179 372.162 55.0305 372.187 55.6431C373.444 55.4847 374.808 54.4249 375.887 55.6502C375.212 56.8226 373.707 56.636 372.567 56.9775C372.691 57.4845 372.819 57.9951 372.947 58.5126C374.499 58.1429 376.072 57.1958 377.638 58.076C377.517 58.3084 377.276 58.7696 377.151 58.9985C375.866 59.2379 374.556 59.3048 373.274 59.5583C373.412 60.9737 374.41 62.4454 373.852 63.8502C373.327 63.9206 372.72 63.8291 372.478 63.3045C372.066 62.2341 372.024 61.0687 371.779 59.9597C370.649 60.2237 369.652 60.8328 368.558 61.1814C367.574 61.1462 366.871 60.185 366.903 59.2555C368.405 60.0899 370.028 59.1534 371.558 58.8894C371.434 58.3331 371.306 57.7838 371.178 57.2381C370.255 57.4388 369.229 58.245 368.302 57.6218C367.855 57.3824 367.784 56.8191 367.56 56.4212C368.682 56.6747 369.818 56.5198 370.891 56.1325C370.713 55.6115 370.539 55.0974 370.362 54.5869C369.968 54.3721 369.58 54.1573 369.201 53.9426Z" fill="#428281"/>
<path d="M371.043 65.5156C371.867 65.2797 372.72 65.2198 373.551 65.4874C373.554 66.0648 373.554 66.6493 373.568 67.2373C374.595 66.9838 375.582 66.5929 376.612 66.3324C377.229 66.5718 377.581 67.1668 377.982 67.6598C376.935 68.5576 376.004 69.6525 374.694 70.1877C374.996 69.2829 375.465 68.4484 375.951 67.6316C375.234 67.8111 374.524 68.0083 373.82 68.2196C374.176 69.8427 375.028 71.3637 374.982 73.0607C374.435 72.9973 373.728 73.1276 373.44 72.5291C373.032 71.2651 372.943 69.9237 372.57 68.6526C371.931 68.8991 371.32 69.2336 370.646 69.3638C369.943 69.1808 369.722 68.4308 369.428 67.878C370.415 67.9837 371.413 67.9273 372.364 67.6175C372.18 66.7725 371.665 66.093 371.043 65.5156Z" fill="#3D7A7A"/>
<path d="M367.752 74.5782C368.98 74.5359 370.337 74.5958 371.352 75.3774C371.91 75.7647 372.194 76.659 371.722 77.2188C371.306 77.5181 370.614 77.5955 370.291 77.1343C369.506 76.2189 368.618 75.4056 367.752 74.5782Z" fill="#428383"/>
<path d="M376.466 76.6484C376.945 76.2189 377.254 75.4373 378 75.4619C376.541 78.8701 373.547 81.4262 370.234 83C368.927 82.8873 367.663 81.7114 368.05 80.3277C368.696 80.7185 369.389 81.472 370.209 80.9967C372.535 79.9545 374.694 78.4757 376.466 76.6484Z" fill="#3C8383"/>
<defs>
<clipPath id="clip0_18_2">
<rect width="124" height="93" fill="white"/>
</clipPath>
</defs>
</svg>
