<svg width="800" height="800" viewBox="0 0 800 800" fill="none" xmlns="http://www.w3.org/2000/svg">
<path d="M742.824 618.773C743.905 614.488 749.745 615.784 751.917 618.526C749.745 623.919 751.897 629.995 749.442 635.319C746.815 640.911 740.54 644.711 734.286 644.582C736.953 641.95 740.722 640.515 742.793 637.289C746.502 632.054 745.744 625.334 745.794 619.317C745.047 619.179 743.561 618.912 742.824 618.773Z" fill="#3B7F7E"/>
<path d="M743.006 549.451C746.3 548.442 751.473 550.49 751.059 554.399C749.058 556.626 746.603 558.407 744.44 560.485C746.431 561.881 745.784 564.365 745.855 566.423C745.552 570.856 746.471 575.379 745.239 579.723C743.39 579.515 740.954 579.011 740.661 576.853C740.469 572.271 741.419 567.719 741.54 563.147C736.832 566.195 732.063 569.441 726.516 570.787C728.739 567.749 732.336 566.175 735.023 563.612C738.782 559.961 743.147 556.537 745.299 551.688C744.733 551.133 743.582 550.015 743.006 549.451Z" fill="#398080"/>
<path d="M740.004 583.444C742.712 581.445 746.602 582.415 748.573 584.958C748.068 586.641 747.603 588.333 747.158 590.035C749.856 589.491 752.948 588.165 755.494 589.926C757.08 590.569 756.595 592.39 756.787 593.716C753.625 593.607 750.472 593.34 747.32 593.182C747.108 598.417 747.865 603.632 747.724 608.857C747.643 611.163 745.188 612.153 743.167 612.242C741.692 609.827 739.277 608.303 736.983 606.739C738.964 606.126 741.035 606.423 743.086 606.551C743.258 603.761 743.157 600.97 742.874 598.199C739.439 603.117 734.235 606.452 728.86 609.025C727.556 609.718 726.071 609.827 724.646 609.867C730.022 604.78 736.367 600.465 740.368 594.082C737.509 594.468 734.851 595.745 732.002 596.042C729.153 595.725 728.132 592.667 727.991 590.262C732.77 592.4 737.953 590.945 742.945 590.708C742.874 589.035 742.813 587.373 742.733 585.72C741.803 584.998 740.085 584.839 740.004 583.444Z" fill="#408282"/>
<path d="M730.113 618.803C732.79 615.973 736.448 618.1 738.863 620.06C737.327 625.087 738.944 630.441 737.539 635.468C735.791 637.14 733.114 634.735 733.174 632.776C733.285 628.788 733.639 624.81 733.376 620.822C732.275 620.149 731.184 619.476 730.113 618.803Z" fill="#408382"/>
<path d="M734.963 650.945C739.196 650.727 743.47 650.005 747.3 648.135C749.432 649.105 751.311 650.52 752.584 652.499C749.603 655.151 747.573 658.585 745.057 661.623C748.805 663.098 753.362 664.384 755.312 668.234C756.242 669.916 756.02 672.825 753.524 672.865C751.473 673.37 750.644 671.123 749.654 669.866C748.047 667.254 746.168 664.8 743.814 662.82C738.843 668.194 732.457 672.746 725 673.934C726.788 671.232 729.951 669.985 732.356 667.907C737.711 663.82 742.157 658.575 744.956 652.489C741.5 653.221 738.257 654.597 734.963 655.794C731.537 655.794 729.971 651.747 730.577 648.867C731.941 649.649 733.164 651.202 734.963 650.945Z" fill="#3D8381"/>
<path d="M732.962 678.327C735.337 676.17 738.681 676.645 741.338 677.961C741.338 679.663 741.389 681.385 741.46 683.107C745.037 682.662 748.917 679.683 751.988 683.127C750.068 686.422 745.784 685.898 742.541 686.858C742.894 688.283 743.258 689.718 743.622 691.173C748.037 690.134 752.514 687.471 756.97 689.945C756.626 690.599 755.939 691.895 755.585 692.538C751.928 693.211 748.199 693.399 744.552 694.112C744.946 698.09 747.785 702.226 746.199 706.175C744.703 706.373 742.975 706.116 742.288 704.641C741.116 701.633 740.995 698.357 740.298 695.24C737.085 695.982 734.245 697.694 731.133 698.674C728.335 698.575 726.334 695.873 726.425 693.261C730.699 695.606 735.316 692.974 739.671 692.231C739.318 690.668 738.954 689.124 738.59 687.59C735.963 688.154 733.043 690.42 730.406 688.669C729.133 687.996 728.931 686.413 728.294 685.294C731.487 686.007 734.72 685.571 737.772 684.483C737.267 683.018 736.771 681.573 736.266 680.138C735.145 679.535 734.043 678.931 732.962 678.327Z" fill="#428281"/>
<path d="M738.206 710.856C740.55 710.193 742.975 710.025 745.339 710.777C745.35 712.4 745.35 714.043 745.39 715.695C748.31 714.983 751.119 713.884 754.049 713.152C755.807 713.825 756.808 715.497 757.949 716.883C754.969 719.406 752.321 722.484 748.593 723.988C749.452 721.445 750.786 719.1 752.17 716.804C750.129 717.308 748.108 717.863 746.107 718.456C747.118 723.018 749.543 727.294 749.411 732.063C747.855 731.885 745.845 732.251 745.026 730.569C743.864 727.016 743.612 723.246 742.551 719.674C740.732 720.366 738.994 721.306 737.074 721.673C735.074 721.158 734.447 719.05 733.609 717.496C736.418 717.793 739.257 717.635 741.965 716.764C741.439 714.389 739.974 712.479 738.206 710.856Z" fill="#3D7A7A"/>
<path d="M728.84 736.328C732.336 736.21 736.195 736.378 739.085 738.575C740.672 739.663 741.48 742.177 740.136 743.751C738.954 744.592 736.984 744.809 736.064 743.513C733.831 740.94 731.305 738.654 728.84 736.328Z" fill="#428383"/>
<path d="M753.635 742.147C754.999 740.94 755.878 738.743 758 738.812C753.847 748.392 745.329 755.576 735.902 760C732.184 759.683 728.587 756.378 729.688 752.489C731.527 753.587 733.498 755.705 735.832 754.369C742.45 751.44 748.593 747.284 753.635 742.147Z" fill="#3C8383"/>
<path d="M717.166 211.474C683.481 200.36 653.258 182.77 624.741 162.025C622.583 160.455 620.451 158.885 618.348 157.315V156.844H617.747C588.182 134.161 562.607 106.705 542.076 75.6059C539.78 72.0738 538.544 70.2136 538.615 68.8949C539.557 67.9884 541.605 67.2937 544.996 66.1517C551.319 64.0206 557.689 62.0073 563.835 59.3583C564.943 58.9505 565.957 58.3231 566.817 57.5139C567.677 56.7047 568.364 55.7301 568.839 54.6488C569.477 53.5939 569.849 52.3989 569.921 51.1678C569.993 49.9366 569.762 48.7066 569.251 47.5846C567.426 42.7809 563.517 41.3916 558.736 42.4512C556.638 43.0209 554.581 43.7329 552.579 44.5823C543.503 47.9816 534.157 50.6086 524.639 52.4353C472.351 62.6581 418.98 66.2185 365.797 63.0316C324.259 60.5709 282.909 56.7445 243.231 42.828C238.132 41.0384 233.682 41.9332 231.198 47.1018C231.139 47.2078 231.103 47.3138 231.056 47.4197C231.009 47.5257 230.738 47.9966 230.585 48.3028C228.372 52.918 230.88 57.7217 236.672 59.9116C244.914 62.9963 253.321 65.6807 261.739 68.5653C261.617 69.1884 261.428 69.7963 261.174 70.3784C260.373 71.7795 259.349 73.1099 258.454 74.4992C243.602 97.5281 225.864 118.562 205.672 137.088C170.067 169.796 130.142 195.521 84.1766 211.333C80.6444 212.51 78.3485 214.465 77.4419 216.808C75.4992 219.834 76.1703 223.801 79.6789 228.099C87.5793 237.789 95.8446 247.172 103.556 256.991C105.182 259.274 107.351 261.115 109.868 262.348C112.384 263.582 115.168 264.169 117.968 264.056C129.824 263.938 141.692 264.268 153.537 263.903C158.717 263.75 160.507 264.974 160.495 270.567C160.307 347.315 160.307 424.068 160.495 500.825C160.548 502.017 160.405 503.211 160.071 504.357C159.082 505.699 157.316 506.052 154.49 506.017C137.253 505.758 120.005 505.911 102.756 505.911C95.7857 505.911 91.7237 507.642 90.4756 511.091C89.7846 512.195 89.4287 513.475 89.4513 514.777C89.4513 519.851 93.3367 522.1 102.25 522.1H696.597C698.536 522.228 700.483 522.185 702.414 521.97C705.298 521.464 707.641 520.134 708.56 517.638C709.26 516.567 709.629 515.314 709.619 514.035C709.619 509.902 707.641 506.971 703.367 506.276C701.45 505.999 699.512 505.88 697.575 505.923C682.912 505.923 668.254 505.923 653.599 505.923C639.765 505.923 639.765 505.923 639.765 492.218C639.765 418.279 639.859 344.329 639.612 270.378C639.539 268.851 639.726 267.322 640.165 265.857C641.342 264.221 643.403 263.785 646.911 263.938C658.744 264.421 670.624 263.938 682.469 264.126C684.944 264.28 687.42 263.824 689.678 262.797C691.936 261.771 693.908 260.206 695.42 258.24C703.838 247.643 712.433 237.047 720.769 226.392C721.49 225.486 722.088 224.488 722.547 223.425C725.42 218.127 723.407 213.535 717.166 211.474Z" fill="white"/>
<path d="M646.593 264.75C658.438 265.233 670.306 264.75 682.163 264.939C684.643 265.086 687.122 264.62 689.381 263.583C691.639 262.547 693.608 260.97 695.114 258.993C703.532 248.397 712.139 237.859 720.463 227.204C724.972 221.423 723.242 215.996 716.283 213.7C682.598 202.573 652.374 184.984 623.858 164.25C591.34 140.637 563.342 111.36 541.205 77.8194C536.048 70.0488 536.154 70.0488 544.737 67.2231C551.048 65.092 557.43 63.0787 563.576 60.4296C567.932 58.5341 570.263 54.8018 568.379 49.8333C566.495 44.8648 562.657 43.6521 557.865 44.7118C555.781 45.2536 553.739 45.9461 551.755 46.7839C542.667 50.1406 533.313 52.7243 523.791 54.5075C471.504 64.7355 418.132 68.296 364.949 65.1038C323.411 62.6431 282.061 58.8167 242.383 44.9001C237.285 43.1105 232.834 44.0053 230.35 49.174C228.136 53.7775 230.632 58.593 236.425 60.7829C244.667 63.8558 253.074 66.552 261.504 69.4365C260.997 72.0974 259.149 74.252 257.607 76.5714C242.725 99.613 224.951 120.651 204.718 139.172C169.161 171.879 129.235 197.64 83.2818 213.417C75.3932 216.137 73.792 222.13 79.3728 228.982C87.2731 238.672 95.5384 248.055 103.262 257.875C104.886 260.156 107.053 261.997 109.567 263.23C112.082 264.463 114.863 265.051 117.662 264.939C129.518 264.821 141.386 265.139 153.231 264.786C158.423 264.633 160.201 265.857 160.189 271.45C160.001 348.198 160.001 424.951 160.189 501.708C160.189 507.006 158.458 508.124 153.572 508.054C136.335 507.795 119.086 507.948 101.837 507.96C93.3603 507.96 89.1687 510.503 89.1334 515.613C89.0981 520.722 93.0188 522.936 101.932 522.936H696.291C698.226 523.064 700.169 523.02 702.096 522.806C705.805 522.159 708.63 520.192 708.701 516.072C708.772 511.951 706.723 509.007 702.449 508.313C700.531 508.033 698.593 507.919 696.656 507.971C681.994 507.971 667.335 507.971 652.681 507.971C638.858 507.971 638.858 507.971 638.858 494.267C638.858 420.316 638.94 346.366 638.693 272.415C638.67 265.928 640.53 264.444 646.593 264.75ZM503.375 76.124C516.727 73.3454 522.614 77.0188 529.985 88.1449C570.675 149.816 626.955 192.931 694.443 221.929C702.108 225.226 702.178 225.309 696.562 231.69C692.347 236.482 689.498 244.888 683.787 245.253C678.324 245.595 672.473 239.943 666.809 236.894C597.061 199.218 528.171 160.165 462.579 115.542C448.168 105.758 433.968 95.6801 418.026 84.5893C448.062 83.6827 476.025 81.8225 503.375 76.124ZM120.593 243.31C115.601 246.101 112.823 245.665 109.702 240.956C106.725 236.722 103.418 232.73 99.8124 229.017C97.0808 226.074 96.8218 224.861 101.155 223.06C165.499 196.463 219.153 155.879 260.538 99.589C265.766 92.5247 270.605 85.072 275.15 77.5015C277.163 74.1342 279.282 73.2159 282.944 73.9694C314.039 80.1741 345.511 83.1764 378.737 84.5657C356.366 101.049 334.361 115.389 312.402 129.789C250.224 170.631 185.491 207.059 120.593 243.299V243.31ZM193.074 507.807C187.563 507.135 180.37 510.032 176.861 506.629C173.352 503.227 175.754 496.033 175.684 490.464C175.578 455.543 175.684 420.622 175.684 385.678H175.578C175.578 347.308 175.684 308.925 175.46 270.555C175.46 265.28 176.943 263.491 182.018 264.503C183.509 264.733 185.019 264.828 186.527 264.786C200.35 265.009 200.35 264.998 200.35 279.185C200.35 352.912 200.397 426.643 200.491 500.377C200.503 506.323 199.019 508.466 193.074 507.795V507.807ZM582.214 484.471C581.878 490.718 581.878 496.979 582.214 503.227C582.39 507.277 580.824 508.737 576.974 508.278C575.896 508.213 574.815 508.213 573.736 508.278C457.127 508.278 340.511 508.329 223.886 508.431C217.469 508.431 214.95 507.088 215.727 500.354C216.321 494.99 216.321 489.576 215.727 484.212C215.15 478.678 217.528 477.878 222.308 477.925C245.585 478.125 268.874 477.819 292.151 478.137C298.968 478.231 303.278 475.971 306.857 470.095C322.544 444.352 336.728 417.723 349.337 390.34C349.584 389.799 349.843 389.281 350.114 388.763C350.927 387.197 351.845 385.678 352.681 384.136L370.989 336.723L375.051 326.233C375.322 325.703 375.605 325.173 375.876 324.631L375.817 324.525C381.091 305.464 386.413 286.426 391.57 267.329C392.347 264.456 394.007 264.279 396.28 264.279C433.568 264.338 470.856 264.433 508.132 264.279C513.018 264.279 513.101 266.858 513.101 270.425C513.101 297.364 513.171 324.314 513.16 351.264C513.16 389.63 513.128 428.001 513.065 466.375C513.065 476.265 514.82 477.689 524.839 478.043C541.853 478.631 558.866 478.902 575.856 477.89C581.107 477.572 582.532 479.479 582.214 484.459V484.471ZM215.774 270.331C215.774 266.128 217.01 264.88 221.202 264.715C242.924 263.867 264.683 263.879 286.358 261.772C316.406 258.864 346.217 255.002 374.887 244.971C375.716 244.76 376.564 244.634 377.418 244.594L378.124 243.852C378.666 244.358 378.501 244.794 377.971 245.194C369.388 267.27 356.778 287.014 341.967 305.24C317.241 335.616 287.807 359.905 250.707 373.963C244.008 376.506 242.96 382.841 248.505 388.304C258.996 398.629 268.639 409.496 275.338 422.8C280.913 433.739 284.807 445.456 286.888 457.556C287.654 462.019 286.417 463.443 281.672 463.443C261.421 463.196 241.17 463.243 220.919 463.443C217.057 463.443 215.762 462.537 215.774 458.439C215.907 395.741 215.907 333.038 215.774 270.331ZM364.843 301.06C350.456 352.771 329.357 401.325 301.264 448.667C298.109 435.316 293.164 424.461 287.995 413.664C283.38 404.033 275.903 396.486 269.781 387.962C267.591 384.913 267.685 383.582 271.17 381.816C308.246 362.978 339.259 337.076 362.936 302.685C363.503 302.068 364.144 301.522 364.843 301.06ZM581.943 364.756C581.943 395.368 581.825 425.921 582.061 456.509C582.061 461.76 580.789 463.573 575.279 463.467C561.715 463.09 548.14 463.184 534.576 463.467C529.973 463.561 528.76 461.96 528.772 457.58C528.89 395.572 528.89 333.54 528.772 271.485C528.772 266.587 530.279 265.257 535.047 265.304C548.517 265.445 561.904 263.22 575.503 265.127C580.989 265.892 582.084 267.399 582.049 272.427C581.825 303.156 581.919 333.956 581.919 364.756H581.943ZM623.352 386.997C623.352 425.155 623.222 463.314 623.481 501.472C623.481 507.03 621.868 508.537 616.605 508.101C611.871 507.832 607.123 507.875 602.394 508.23C599.027 508.383 597.602 507.053 597.897 503.698C598.002 502.414 597.897 501.107 597.897 499.812C597.897 424.147 597.853 348.477 597.767 272.804C597.767 266.634 598.709 263.467 605.75 264.432C611.248 265.198 618.477 262.078 622.01 265.504C625.836 269.177 623.187 276.512 623.269 282.223C623.387 317.143 623.328 352.064 623.328 386.997H623.352ZM563.823 249.68C510.565 249.68 457.312 249.641 404.062 249.562C395.985 249.562 396.056 249.562 397.74 241.898C398.63 238.13 399.295 234.312 399.73 230.465C400.566 221.929 395.691 218.88 387.591 222.871C369.471 231.784 350.314 237.365 330.487 240.767C301.135 245.83 271.512 247.832 241.759 248.903C208.651 250.08 175.554 249.292 142.069 248.526C148.348 245.057 154.628 241.576 160.907 238.083C237.202 195.698 312.108 151.028 383.14 100.154C385.777 98.2703 388.768 96.7162 390.911 94.385C396.209 88.6159 400.33 90.3231 406.064 94.491C471.88 142.622 541.123 185.36 612.567 224.579C627.041 232.53 641.503 240.485 655.954 248.444L655.565 249.692C625.016 249.692 594.435 249.688 563.823 249.68Z" fill="white" stroke="white" stroke-width="2.63" stroke-miterlimit="10"/>
<path d="M647.206 263.491C659.039 263.973 670.907 263.491 682.763 263.679C685.245 263.823 687.724 263.351 689.979 262.305C692.235 261.26 694.197 259.673 695.691 257.686C704.109 247.09 712.716 236.552 721.052 225.897C725.549 220.116 723.819 214.677 716.86 212.381C683.175 201.267 652.951 183.677 624.435 162.931C591.913 139.319 563.914 110.036 541.782 76.489C536.625 68.7183 536.731 68.7301 545.314 65.8926C551.625 63.7734 558.006 61.7483 564.152 59.111C568.521 57.2154 570.84 53.4714 568.956 48.5147C567.072 43.5579 563.234 42.3217 558.442 43.3813C556.359 43.9285 554.317 44.6209 552.331 45.4535C543.257 48.8559 533.91 51.483 524.392 53.3066C472.109 63.5351 418.74 67.0956 365.562 63.9029C324.023 61.454 282.661 57.6275 242.995 43.6992C237.897 41.9214 233.435 42.8162 230.95 47.9849C228.737 52.5884 231.233 57.4038 237.026 59.582C245.267 62.6667 253.674 65.3511 262.104 68.2474C261.598 70.9082 259.749 73.0511 258.207 75.3823C243.355 98.4081 225.621 119.441 205.436 137.971C169.761 170.679 129.836 196.463 83.8822 212.216C75.9937 214.924 74.3925 220.917 79.9851 227.769C87.8736 237.459 96.1389 246.854 103.863 256.674C105.496 258.944 107.668 260.772 110.184 261.993C112.7 263.214 115.48 263.789 118.274 263.667C130.118 263.549 141.987 263.879 153.831 263.526C159.023 263.361 160.813 264.586 160.79 270.19C160.601 346.939 160.601 423.687 160.79 500.436C160.79 505.746 159.059 506.865 154.184 506.794C136.936 506.535 119.687 506.688 102.438 506.688C93.9607 506.688 89.781 509.231 89.7339 514.353C89.6868 519.474 93.6311 521.664 102.544 521.664C300.652 521.664 498.768 521.664 696.892 521.664C698.826 521.79 700.768 521.751 702.696 521.546C706.405 520.887 709.231 518.921 709.301 514.8C709.372 510.679 707.323 507.795 703.061 507.041C701.143 506.768 699.206 506.654 697.269 506.7C682.606 506.7 667.947 506.7 653.293 506.7C639.458 506.7 639.458 506.7 639.458 492.995C639.458 419.045 639.553 345.106 639.294 271.155C639.27 264.75 641.13 263.243 647.206 263.491ZM503.976 74.9113C517.269 72.1327 523.262 75.8179 530.585 86.9205C571.276 148.579 627.555 191.706 695.043 220.705C702.708 224.002 702.779 224.084 697.163 230.465C692.959 235.245 690.098 243.664 684.4 244.029C678.925 244.37 673.073 238.719 667.41 235.658C597.661 197.982 528.772 158.94 463.179 114.318C448.78 104.522 434.569 94.4439 418.639 83.3648C448.662 82.47 476.696 80.6215 503.976 74.9113ZM121.206 242.098C116.202 244.888 113.423 244.453 110.315 239.743C107.333 235.513 104.026 231.521 100.425 227.805C97.6931 224.849 97.4223 223.637 101.755 221.847C166.1 195.286 219.765 154.678 261.139 98.3763C266.366 91.3121 271.217 83.8593 275.75 76.3006C277.763 72.9333 279.883 72.015 283.556 72.7685C314.651 78.985 346.111 81.9755 379.337 83.4355C356.967 99.9186 334.973 114.247 313.015 128.658C250.825 169.383 186.092 205.882 121.206 242.098ZM193.674 506.582C188.164 505.923 180.97 508.807 177.461 505.405C173.953 502.002 176.355 494.808 176.284 489.251C176.19 454.319 176.284 419.398 176.284 384.465H176.178C176.178 346.083 176.284 307.713 176.06 269.342C176.06 264.056 177.544 262.278 182.618 263.29C184.11 263.517 185.62 263.607 187.128 263.561C200.962 263.785 200.962 263.785 200.962 277.96C200.962 351.699 200.88 425.426 201.092 499.153C201.115 505.122 199.62 507.289 193.674 506.582ZM582.826 483.258C582.484 489.502 582.484 495.759 582.826 502.002C583.014 506.064 581.437 507.512 577.587 507.053C576.512 506.994 575.435 506.994 574.36 507.053C457.744 507.053 341.123 507.1 224.498 507.194C218.081 507.194 215.562 505.852 216.351 499.118C216.939 493.753 216.939 488.34 216.351 482.976C215.774 477.442 218.152 476.653 222.932 476.689C246.209 476.901 269.498 476.583 292.775 476.912C299.592 477.007 303.902 474.746 307.481 468.871C323.168 443.124 337.352 416.49 349.961 389.104C350.208 388.574 350.467 388.045 350.738 387.526C351.562 385.972 352.469 384.454 353.305 382.899L371.625 335.499C372.967 332.006 374.318 328.505 375.675 324.996C375.946 324.467 376.229 323.937 376.511 323.407L376.453 323.289C381.727 304.239 387.049 285.19 392.194 266.104C392.971 263.232 394.631 263.043 396.904 263.055C434.192 263.055 471.48 263.196 508.756 263.055C513.642 263.055 513.713 265.622 513.713 269.189C513.713 296.139 513.784 323.089 513.784 350.027C513.784 388.402 513.752 426.776 513.689 465.15C513.689 475.04 515.432 476.453 525.463 476.806C542.465 477.407 559.478 477.678 576.468 476.665C581.707 476.371 583.132 478.278 582.826 483.258ZM216.374 269.118C216.374 264.915 217.552 263.679 221.802 263.514C243.525 262.666 265.283 262.666 286.971 260.571C317.006 257.663 346.818 253.801 375.487 243.758C376.322 243.557 377.173 243.435 378.03 243.393L378.725 242.639C379.266 243.157 379.113 243.593 378.584 243.993C369.989 266.069 357.391 285.814 342.567 304.039C317.842 334.415 288.407 358.693 251.307 372.751C244.608 375.294 243.572 381.64 249.106 387.091C259.596 397.416 269.239 408.284 275.939 421.6C281.514 432.538 285.408 444.255 287.489 456.355C288.254 460.818 287.03 462.242 282.273 462.242C262.022 461.983 241.771 462.042 221.519 462.242C217.658 462.242 216.362 461.336 216.374 457.25C216.508 394.528 216.508 331.817 216.374 269.118ZM365.42 299.86C351.056 351.558 329.957 400.124 301.924 447.455C298.756 434.103 293.811 423.248 288.643 412.451C284.039 402.821 276.551 395.274 270.428 386.749C268.297 383.665 268.297 382.381 271.829 380.604C308.894 361.766 339.906 335.863 363.584 301.484C364.125 300.868 364.742 300.322 365.42 299.86ZM582.52 363.543C582.52 394.155 582.414 424.767 582.638 455.308C582.638 460.559 581.366 462.372 575.856 462.266C562.292 461.889 548.717 461.972 535.153 462.266C530.55 462.348 529.349 460.747 529.349 456.32C529.466 394.312 529.466 332.28 529.349 270.225C529.349 265.339 530.844 264.009 535.612 264.056C549.082 264.185 562.469 261.972 576.068 263.867C581.566 264.633 582.649 266.151 582.626 271.167C582.426 301.943 582.52 332.743 582.52 363.543ZM623.929 385.784C623.929 423.943 623.799 462.101 624.058 500.26C624.058 505.829 622.457 507.324 617.182 506.888C612.447 506.618 607.7 506.665 602.971 507.029C599.604 507.183 598.179 505.852 598.473 502.485C598.591 501.202 598.473 499.906 598.473 498.611C598.473 422.93 598.434 347.257 598.356 271.591C598.356 265.433 599.286 262.254 606.327 263.232C611.825 263.985 619.054 260.877 622.586 264.303C626.413 267.976 623.823 275.3 623.846 281.01C623.999 315.931 623.929 350.863 623.929 385.784ZM564.423 248.479L404.651 248.361C396.574 248.361 396.645 248.361 398.328 240.697C399.218 236.924 399.886 233.103 400.33 229.253C401.154 220.729 396.28 217.679 388.179 221.659C370.059 230.571 350.903 236.152 331.088 239.566C301.723 244.617 272.1 246.631 242.348 247.702C209.239 248.879 176.143 248.091 142.669 247.325C148.957 243.793 155.268 240.379 161.508 236.882C237.803 194.497 312.708 149.827 383.752 98.9532C386.378 97.0694 389.38 95.5153 391.523 93.1841C396.821 87.4032 400.942 89.1104 406.676 93.2783C472.481 141.421 541.723 184.159 613.167 223.378C627.665 231.337 642.143 239.288 656.601 247.231L656.201 248.479H564.423Z" fill="#2F8686"/>
<path d="M576.433 476.677C559.443 477.689 542.43 477.419 525.428 476.818C515.444 476.465 513.654 475.052 513.654 465.162C513.654 426.78 513.685 388.406 513.748 350.039C513.748 323.101 513.654 296.151 513.678 269.201C513.678 265.669 513.607 263.043 508.721 263.067C471.421 263.173 434.133 263.067 396.869 263.067C394.514 263.067 392.912 263.243 392.159 266.116C387.037 285.201 381.692 304.251 376.417 323.301C386.531 317.814 396.139 311.421 407.712 308.819C450.675 299.153 495.875 333.968 491.766 381.263C490.818 393.587 485.95 405.284 477.873 414.641C476.977 415.514 476.354 416.63 476.082 417.851C475.81 419.072 475.901 420.346 476.343 421.517C478.344 428.581 479.781 435.646 481.935 442.639C483.76 448.526 481.429 448.526 477.014 446.972C469.125 444.158 461.166 441.521 453.289 438.73C450.915 437.719 448.244 437.656 445.825 438.554C406.971 452.918 363.595 428.84 354.847 387.15C354.44 385.708 353.925 384.299 353.305 382.935C352.469 384.489 351.562 386.008 350.738 387.562C350.467 388.08 350.208 388.61 349.961 389.139C337.352 416.526 323.168 443.159 307.481 468.906C303.949 474.793 299.592 477.042 292.775 476.948C269.498 476.618 246.209 476.948 222.932 476.724C218.152 476.724 215.774 477.478 216.351 483.011C216.939 488.376 216.939 493.788 216.351 499.153C215.562 505.887 218.081 507.241 224.498 507.23C341.123 507.026 457.744 506.978 574.36 507.088C575.435 507.029 576.512 507.029 577.587 507.088C581.437 507.548 583.014 506.099 582.826 502.037C582.484 495.794 582.484 489.537 582.826 483.294C583.132 478.278 581.707 476.371 576.433 476.677Z" fill="#EFE0C1"/>
<path d="M576.068 263.844C562.469 261.948 549.082 264.162 535.613 264.032C530.844 264.032 529.337 265.316 529.349 270.202C529.498 332.21 529.498 394.241 529.349 456.297C529.349 460.724 530.526 462.325 535.153 462.242C548.717 461.972 562.292 461.889 575.856 462.242C581.366 462.395 582.673 460.535 582.638 455.284C582.414 424.672 582.52 394.061 582.52 363.52C582.52 332.72 582.426 301.92 582.626 271.12C582.661 266.128 581.566 264.609 576.068 263.844Z" fill="#52A7A7"/>
<path d="M354.812 387.103C363.56 428.793 406.959 452.87 445.789 438.507C448.209 437.609 450.88 437.672 453.254 438.683C461.131 441.521 469.09 444.158 476.978 446.925C481.394 448.514 483.725 448.479 481.9 442.592C479.745 435.646 478.309 428.464 476.307 421.47C475.866 420.299 475.775 419.025 476.047 417.804C476.319 416.582 476.941 415.467 477.838 414.594C485.932 405.235 490.813 393.529 491.766 381.192C495.876 333.897 450.675 299.082 407.712 308.749C396.139 311.351 386.519 317.744 376.417 323.23L376.476 323.348C376.194 323.878 375.911 324.408 375.64 324.937C374.282 328.446 372.932 331.947 371.59 335.44L353.27 382.84C353.892 384.22 354.407 385.645 354.812 387.103ZM429.176 354.937C438.525 349.262 448.544 345.871 459.635 345.789C463.533 345.789 465.087 347.037 465.004 350.934C464.851 358.469 465.004 366.004 465.004 373.528C465.004 381.063 464.887 388.598 465.004 396.133C465.087 399.783 464.18 401.631 460.024 401.714C449.427 401.89 439.102 403.833 429.718 409.249C426.186 411.298 424.796 410.332 424.832 406.188C424.934 391.769 424.91 377.35 424.761 362.931C424.664 361.317 425.028 359.709 425.81 358.294C426.591 356.879 427.759 355.714 429.176 354.937ZM380.456 373.068H380.55C380.55 365.545 380.691 358.01 380.55 350.486C380.444 346.778 381.975 345.553 385.483 345.624C396.508 345.667 407.278 348.942 416.46 355.043C417.904 355.988 419.069 357.302 419.834 358.848C420.6 360.394 420.939 362.117 420.817 363.838C420.699 377.825 420.64 391.8 420.734 405.776C420.734 409.896 419.839 411.663 415.683 409.108C406.606 403.492 396.398 402.043 386.06 401.502C381.786 401.29 380.397 399.618 380.467 395.615C380.55 388.139 380.456 380.615 380.456 373.068Z" fill="#FDFDFD"/>
<path d="M271.829 380.604C268.297 382.381 268.238 383.7 270.428 386.749C276.551 395.274 284.039 402.821 288.643 412.451C293.811 423.248 298.756 434.103 301.924 447.455C329.957 400.124 351.056 351.558 365.42 299.86C364.742 300.322 364.125 300.868 363.584 301.484C339.906 335.864 308.894 361.777 271.829 380.604Z" fill="#52A7A7"/>
<path d="M424.808 406.188C424.808 410.332 426.15 411.298 429.694 409.249C439.113 403.833 449.368 401.89 460 401.714C464.156 401.631 465.063 399.783 464.981 396.133C464.816 388.598 464.981 381.063 464.981 373.528C464.981 366.004 464.875 358.469 464.981 350.934C465.063 347.037 463.509 345.765 459.612 345.789C448.521 345.871 438.501 349.262 429.153 354.937C427.731 355.711 426.558 356.874 425.772 358.29C424.986 359.705 424.619 361.315 424.714 362.931C424.887 377.342 424.918 391.761 424.808 406.188Z" fill="#52A7A7"/>
<path d="M386.036 401.537C396.374 402.044 406.582 403.527 415.66 409.143C419.816 411.71 420.734 409.932 420.711 405.811C420.617 391.836 420.711 377.86 420.793 363.873C420.916 362.152 420.577 360.43 419.811 358.883C419.045 357.337 417.88 356.024 416.437 355.078C407.254 348.977 396.484 345.702 385.46 345.659C381.927 345.589 380.42 346.837 380.526 350.522C380.726 358.045 380.526 365.58 380.526 373.104H380.432C380.432 380.639 380.526 388.162 380.432 395.686C380.338 399.653 381.727 401.325 386.036 401.537Z" fill="#52A7A7"/>
<path d="M324.948 582.661C339.997 577.294 356.343 580.951 371.049 585.659C369.845 594.695 368.59 603.709 367.697 612.775C366.275 613.054 364.864 613.311 363.452 613.6C360.64 607.758 357.972 601.577 352.773 597.394C346.639 592.14 337.06 591.006 329.878 594.725C323.609 598.197 322.883 606.45 324.554 612.683C326.816 620.275 334.392 624.211 340.879 627.776C350.842 632.793 361.138 638.027 368.496 646.629C381.023 661.918 377.826 687.921 360.941 698.821C350.178 706.064 336.478 707.022 323.962 705.044C315.711 703.9 307.72 701.376 300.06 698.152C301.212 688.333 302.914 678.577 303.755 668.718C305.8 669.037 308.872 668.553 309.577 671.128C312.691 678.402 317.164 685.397 323.734 690.044C330.667 694.793 341.18 695.514 347.698 689.662C354.516 683.471 354.309 672.076 348.756 665.153C343.173 658.611 334.932 655.273 327.626 651.049C319.582 646.392 310.875 641.591 306.153 633.267C301.036 624.592 300.88 613.867 303.506 604.379C306.391 594.138 314.943 586.092 324.948 582.661Z" fill="#358486"/>
<path d="M464.331 623.057C474.294 616.536 486.489 613.981 498.3 614.238C505.876 614.506 514.034 616.824 518.963 622.913C523.904 628.929 525.108 636.965 525.46 644.476C525.564 656.87 525.388 669.264 525.481 681.647C525.564 684.831 526.031 688.529 528.73 690.641C530.245 691.991 532.362 691.249 534.178 691.28C534.49 692.959 534.791 694.649 535.092 696.369C528.128 700.264 521.402 706.445 512.861 705.775C506.945 705.229 503.572 699.357 502.815 694.051C497.937 700.202 490.983 705.332 482.888 705.899C474.544 706.764 466.127 701.984 462.214 694.69C458.509 687.818 458.042 679.308 460.688 672.004C463.428 664.885 470.06 660.218 476.785 657.138C484.756 653.14 493.692 651.986 502.244 649.782C501.849 644.074 503.105 637.728 499.909 632.618C496.203 627.848 489.188 628.353 484.092 630.289C478.062 632.597 474.284 638.027 470.859 643.147C470.091 644.775 468.161 644.023 466.76 644.198C465.94 637.151 465.224 630.094 464.331 623.057ZM485.617 668.027C482.535 671.777 482.504 676.929 483.044 681.503C483.884 686.232 487.942 691.033 493.163 690.621C496.515 690.569 499.286 688.478 501.87 686.603C502.036 677.691 501.86 668.779 502.078 659.868C495.892 660.537 489.572 663.092 485.617 668.027Z" fill="#358486"/>
<path d="M648.912 615.948C660.599 612.384 673.323 614.537 684.303 619.431C683.068 626.601 682.342 633.854 681.563 641.086C679.892 640.932 677.349 641.807 676.581 639.768C674.703 635.914 672.949 631.845 669.659 628.95C665.601 625.066 658.824 623.799 653.946 626.9C649.151 630.042 648.975 637.573 653.022 641.395C657.07 645.228 662.384 647.258 667.22 649.895C674.62 653.727 682.144 658.714 685.777 666.472C688.579 673.014 688.569 680.565 686.659 687.355C683.95 696.843 674.859 703.385 665.383 705.219C652.856 707.455 639.945 704.549 628.55 699.316C629.65 691.661 631.227 684.078 632.545 676.465C633.967 676.558 635.389 676.671 636.832 676.805C639.426 683.213 642.976 689.91 649.39 693.248C654.071 695.864 660.599 696.091 664.615 692.135C669.15 687.427 667.49 679.082 662.186 675.62C653.23 669.377 642.042 665.874 635.13 657.024C629.754 650.431 629.245 641.169 631.445 633.267C633.791 625.025 640.661 618.359 648.912 615.948Z" fill="#358486"/>
<path d="M255.391 621.728C265.459 619.338 275.37 616.35 285.458 614.115C285.157 627.343 284.192 640.561 284.306 653.81C284.264 670.51 283.6 687.571 288.634 703.736C278.079 703.602 267.513 703.787 256.948 703.643C259.989 692.073 261.349 680.133 261.203 668.192C261.037 652.625 262.677 636.11 255.391 621.728Z" fill="#358486"/>
<path d="M268.333 578.108C273.004 576.933 278.369 577.726 282.002 581.034C288.198 586.195 287.803 597.26 280.839 601.607C274.031 606.728 262.739 604.451 259.335 596.405C255.36 589.203 260.435 579.684 268.333 578.108Z" fill="#358385"/>
<path d="M56.2906 582.538C67.188 582.507 78.0854 582.744 88.9828 582.424C84.7484 600.752 84.7588 619.657 84.8003 638.356C84.8522 660.146 83.6898 682.296 88.9102 703.663C77.9401 703.777 66.9701 703.622 56 703.746C61.2204 681.606 59.9646 658.765 60.141 636.224C60.1099 618.287 60.6392 600.093 56.2906 582.538Z" fill="#358485"/>
<path d="M420.337 614.764C431.13 612.827 442.059 615.516 451.97 619.719C450.497 627.837 449.106 635.976 448.068 644.177C446.553 644.208 445.048 644.249 443.553 644.28C441.592 638.511 439.226 632.515 434.618 628.291C430.29 624.242 422.796 623.974 418.489 628.188C412.978 633.452 411.173 641.344 410.477 648.628C409.906 658.693 410.104 669.521 415.438 678.443C419.392 685.16 426.74 690.559 434.908 689.735C440.793 690.178 445.826 686.84 450.258 683.44C451.327 685.016 452.489 686.551 453.382 688.261C453.288 690.425 451.462 692.022 450.248 693.68C445.089 700.078 437.513 704.477 429.324 705.611C418.583 707.012 407.083 703.931 399.113 696.483C391.817 690.085 387.468 680.823 386.243 671.314C384.79 659.651 385.434 647.278 390.841 636.615C396.435 625.252 407.665 616.659 420.337 614.764Z" fill="#358485"/>
<path d="M131.317 615.186C141.124 613.198 151.897 613.909 160.667 619.029C171.014 624.901 177.864 635.842 179.878 647.381C182.057 659.435 181.476 672.293 176.401 683.594C172.799 692.104 165.701 699.007 157.18 702.644C148.711 706.486 138.934 706.744 129.957 704.683C119.174 702.046 109.864 694.226 105.443 684.12C99.4443 670.376 99.1745 654.438 103.866 640.283C107.716 627.868 118.613 618.081 131.317 615.186ZM136.423 626.22C131.898 628.322 129.646 633.174 128.328 637.697C125.702 647.258 125.775 657.292 126.148 667.131C126.698 674.92 127.643 683.079 131.794 689.899C134.264 693.969 139.599 696.627 144.259 694.731C148.4 693.258 151.057 689.374 152.406 685.387C156.111 674.559 155.831 662.948 155.467 651.677C154.824 644.074 154.014 635.832 149.188 629.589C146.376 625.705 140.792 624.129 136.423 626.22Z" fill="#358485"/>
<path d="M189.82 621.821C199.057 619.111 208.346 616.577 217.676 614.197C217.759 620.636 217.614 627.075 217.749 633.514C221.319 626.972 224.982 619.647 231.967 616.134C237.561 613.198 244.484 613.981 249.704 617.36C248.126 625.993 246.86 634.709 246.175 643.466C241.63 644.043 240.623 638.439 236.824 637.089C230.691 633.494 222.647 637.573 220.727 644.043C218.444 651.513 218.973 659.466 218.838 667.172C218.61 679.463 219.783 691.857 223.312 703.674C212.767 703.705 202.233 703.725 191.688 703.653C194.667 692.784 196.12 681.534 195.902 670.273C195.726 654.047 197.614 636.78 189.82 621.821Z" fill="#358485"/>
<path d="M539.886 621.79C549.154 619.317 558.277 616.257 567.67 614.279C567.628 619.441 567.67 624.613 567.618 629.785C571.728 624.376 576.242 618.751 582.729 616.072C592.557 612.023 605.81 614.228 611.56 623.799C616.511 632.556 615.629 643.023 615.452 652.697C615.618 664.401 614.933 676.156 616.137 687.829C616.666 693.248 618.483 698.43 619.562 703.746C609.1 703.612 598.629 703.746 588.177 703.633C593.336 686.819 592.142 669.088 592.225 651.77C592.069 646.578 592.184 641.025 589.547 636.368C585.884 630.495 576.502 630.289 572.018 635.296C569.631 638.109 569.237 641.941 568.988 645.475C568.355 654.758 568.676 664.061 568.583 673.354C568.406 683.584 569.849 693.804 572.558 703.674C562.19 703.643 551.832 703.787 541.474 703.55C546.902 685.016 545.418 665.565 545.522 646.516C545.574 637.954 543.633 629.486 539.886 621.79Z" fill="#358485"/>
</svg>
